<?xml version="1.0" encoding="utf-8"?>
<!-- Generator: Adobe Illustrator 18.0.0, SVG Export Plug-In . SVG Version: 6.00 Build 0)  -->
<!DOCTYPE svg PUBLIC "-//W3C//DTD SVG 1.1//EN" "http://www.w3.org/Graphics/SVG/1.1/DTD/svg11.dtd">
<svg version="1.1" id="Warstwa_1" xmlns="http://www.w3.org/2000/svg" xmlns:xlink="http://www.w3.org/1999/xlink" x="0px" y="0px"
	 viewBox="0 0 449.1 432" enable-background="new 0 0 449.1 432" xml:space="preserve">
<g>
	<defs>
		<rect id="SVGID_1_" width="449.1" height="432"/>
	</defs>
	<clipPath id="SVGID_2_">
		<use xlink:href="#SVGID_1_"  overflow="visible"/>
	</clipPath>
	<path clip-path="url(#SVGID_2_)" fill="#7BC9BD" d="M319.2,367.1c0,0,119.3,22.2,119.3,48.8c0,26.7-367.8,14.3-395.2,4.2
		C16,410,79.6,348.3,319.2,367.1"/>
	<path clip-path="url(#SVGID_2_)" fill="#6EB4A9" d="M290.3,374.8c0,0,78.4,12.4,78.4,27.3c0,14.9-241.7,8-259.6,2.4
		C91.1,398.7,132.8,364.3,290.3,374.8"/>
	<path clip-path="url(#SVGID_2_)" fill="#6EB4A9" d="M107.4,371.5c2.1-1.4-11.7-21.9-13.2-14C92.7,365.3,107.4,371.5,107.4,371.5"/>
	<path clip-path="url(#SVGID_2_)" fill="#6EB4A9" d="M98.4,374.4c1.7-1.1-9.2-17.1-10.3-11C87,369.6,98.4,374.4,98.4,374.4"/>
	<path clip-path="url(#SVGID_2_)" fill="#6EB4A9" d="M113.5,368.6c2.2,0,7.1-17.7,1.2-13.6C108.8,359.1,113.5,368.6,113.5,368.6"/>
	<path clip-path="url(#SVGID_2_)" fill="#6EB4A9" d="M370.6,374.9c2.1,0.4,11.9-16.2,5-13.2C368.5,364.8,370.6,374.9,370.6,374.9"/>
	<path clip-path="url(#SVGID_2_)" fill="#6EB4A9" d="M363.9,372c1.7,0.3,9.3-12.6,3.9-10.3C362.4,364.1,363.9,372,363.9,372"/>
	<path clip-path="url(#SVGID_2_)" fill="#6EB4A9" d="M375.8,376.6c1,1.1,17.5-4.9,11.4-5.9C381.1,369.7,375.8,376.6,375.8,376.6"/>
	<polygon clip-path="url(#SVGID_2_)" fill="#767478" points="182.4,243.8 180.3,253.2 178.5,252.7 181.6,243.3 	"/>
	<path clip-path="url(#SVGID_2_)" fill="#535254" d="M177.5,243.8c0,0.7,1.8,1.3,4.1,1.4c2.3,0.1,4.2-0.4,4.2-1
		c0-0.7-1.8-1.3-4.1-1.4C179.4,242.7,177.6,243.1,177.5,243.8"/>
	<path clip-path="url(#SVGID_2_)" fill="#7E7C80" d="M177.5,243c0,0.7,1.8,1.3,4.1,1.4s4.1-0.4,4.2-1c0-0.7-1.8-1.3-4.1-1.4
		C179.3,241.9,177.5,242.3,177.5,243"/>
	<polygon clip-path="url(#SVGID_2_)" fill="#767478" points="188.8,244.7 185.8,251.7 184.5,251.1 188.2,244.2 	"/>
	<path clip-path="url(#SVGID_2_)" fill="#535254" d="M185,244.1c-0.1,0.5,1.2,1.2,3,1.6c1.8,0.4,3.3,0.3,3.4-0.2
		c0.1-0.5-1.2-1.2-3-1.6C186.6,243.4,185.1,243.5,185,244.1"/>
	<path clip-path="url(#SVGID_2_)" fill="#7E7C80" d="M185,243.4c-0.1,0.5,1.2,1.2,3,1.6c1.8,0.4,3.3,0.3,3.4-0.2
		c0.1-0.5-1.2-1.2-3-1.6C186.6,242.8,185.1,242.9,185,243.4"/>
	<polygon clip-path="url(#SVGID_2_)" fill="#716F73" points="171.4,243.8 169.3,253.2 167.5,252.7 170.6,243.3 	"/>
	<path clip-path="url(#SVGID_2_)" fill="#535254" d="M166.5,243.8c0,0.7,1.8,1.3,4.1,1.4c2.3,0.1,4.2-0.4,4.2-1
		c0-0.7-1.8-1.3-4.1-1.4C168.4,242.7,166.6,243.1,166.5,243.8"/>
	<path clip-path="url(#SVGID_2_)" fill="#7E7C80" d="M166.5,243c0,0.7,1.8,1.3,4.1,1.4s4.1-0.4,4.2-1c0-0.7-1.8-1.3-4.1-1.4
		C168.3,241.9,166.5,242.3,166.5,243"/>
	<polygon clip-path="url(#SVGID_2_)" fill="#767478" points="177.8,242.7 174.8,249.7 173.5,249.1 177.2,242.2 	"/>
	<path clip-path="url(#SVGID_2_)" fill="#535254" d="M174,242.1c-0.1,0.5,1.2,1.2,3,1.6c1.8,0.4,3.3,0.3,3.4-0.2
		c0.1-0.5-1.2-1.2-3-1.6C175.6,241.4,174.1,241.5,174,242.1"/>
	<path clip-path="url(#SVGID_2_)" fill="#7E7C80" d="M174,241.4c-0.1,0.5,1.2,1.2,3,1.6c1.8,0.4,3.3,0.3,3.4-0.2
		c0.1-0.5-1.2-1.2-3-1.6C175.6,240.8,174.1,240.9,174,241.4"/>
	<polygon clip-path="url(#SVGID_2_)" fill="#767478" points="182.4,246.8 180.3,256.2 178.5,255.7 181.6,246.3 	"/>
	<path clip-path="url(#SVGID_2_)" fill="#535254" d="M177.5,246.8c0,0.7,1.8,1.3,4.1,1.4c2.3,0.1,4.2-0.4,4.2-1
		c0-0.7-1.8-1.3-4.1-1.4C179.4,245.7,177.6,246.1,177.5,246.8"/>
	<path clip-path="url(#SVGID_2_)" fill="#7E7C80" d="M177.5,246c0,0.7,1.8,1.3,4.1,1.4s4.1-0.4,4.2-1c0-0.7-1.8-1.3-4.1-1.4
		C179.3,244.9,177.5,245.3,177.5,246"/>
	<polygon clip-path="url(#SVGID_2_)" fill="#6F6D70" points="188.8,247.7 185.8,254.7 184.5,254.1 188.2,247.2 	"/>
	<path clip-path="url(#SVGID_2_)" fill="#535254" d="M185,247.1c-0.1,0.5,1.2,1.2,3,1.6c1.8,0.4,3.3,0.3,3.4-0.2
		c0.1-0.5-1.2-1.2-3-1.6C186.6,246.4,185.1,246.5,185,247.1"/>
	<path clip-path="url(#SVGID_2_)" fill="#7E7C80" d="M185,246.4c-0.1,0.5,1.2,1.2,3,1.6c1.8,0.4,3.3,0.3,3.4-0.2
		c0.1-0.5-1.2-1.2-3-1.6C186.6,245.8,185.1,245.9,185,246.4"/>
	<polygon clip-path="url(#SVGID_2_)" fill="#716F73" points="169.4,244.8 167.3,254.2 165.5,253.7 168.6,244.3 	"/>
	<path clip-path="url(#SVGID_2_)" fill="#535254" d="M164.5,244.8c0,0.7,1.8,1.3,4.1,1.4c2.3,0.1,4.2-0.4,4.2-1
		c0-0.7-1.8-1.3-4.1-1.4C166.4,243.7,164.6,244.1,164.5,244.8"/>
	<path clip-path="url(#SVGID_2_)" fill="#7E7C80" d="M164.5,244c0,0.7,1.8,1.3,4.1,1.4s4.1-0.4,4.2-1c0-0.7-1.8-1.3-4.1-1.4
		C166.3,242.9,164.5,243.3,164.5,244"/>
	<polygon clip-path="url(#SVGID_2_)" fill="#767478" points="175.8,245.7 172.8,252.7 171.5,252.1 175.2,245.2 	"/>
	<path clip-path="url(#SVGID_2_)" fill="#535254" d="M172,245.1c-0.1,0.5,1.2,1.2,3,1.6c1.8,0.4,3.3,0.3,3.4-0.2
		c0.1-0.5-1.2-1.2-3-1.6C173.6,244.4,172.1,244.5,172,245.1"/>
	<path clip-path="url(#SVGID_2_)" fill="#7E7C80" d="M172,244.4c-0.1,0.5,1.2,1.2,3,1.6c1.8,0.4,3.3,0.3,3.4-0.2
		c0.1-0.5-1.2-1.2-3-1.6C173.6,243.8,172.1,243.9,172,244.4"/>
	<polygon clip-path="url(#SVGID_2_)" fill="#716F73" points="165.4,245.8 163.3,255.2 161.5,254.7 164.6,245.3 	"/>
	<path clip-path="url(#SVGID_2_)" fill="#535254" d="M160.5,245.8c0,0.7,1.8,1.3,4.1,1.4c2.3,0.1,4.2-0.4,4.2-1
		c0-0.7-1.8-1.3-4.1-1.4C162.4,244.7,160.6,245.1,160.5,245.8"/>
	<path clip-path="url(#SVGID_2_)" fill="#7E7C80" d="M160.5,245c0,0.7,1.8,1.3,4.1,1.4s4.1-0.4,4.2-1c0-0.7-1.8-1.3-4.1-1.4
		C162.3,243.9,160.5,244.3,160.5,245"/>
	<polygon clip-path="url(#SVGID_2_)" fill="#716F73" points="171.8,246.7 168.8,253.7 167.5,253.1 171.2,246.2 	"/>
	<path clip-path="url(#SVGID_2_)" fill="#535254" d="M168,246.1c-0.1,0.5,1.2,1.2,3,1.6c1.8,0.4,3.3,0.3,3.4-0.2
		c0.1-0.5-1.2-1.2-3-1.6C169.6,245.4,168.1,245.5,168,246.1"/>
	<path clip-path="url(#SVGID_2_)" fill="#7E7C80" d="M168,245.4c-0.1,0.5,1.2,1.2,3,1.6c1.8,0.4,3.3,0.3,3.4-0.2
		c0.1-0.5-1.2-1.2-3-1.6C169.6,244.8,168.1,244.9,168,245.4"/>
	<polygon clip-path="url(#SVGID_2_)" fill="#767478" points="176.4,249.8 174.3,259.2 172.5,258.7 175.6,249.3 	"/>
	<path clip-path="url(#SVGID_2_)" fill="#535254" d="M171.5,249.8c0,0.7,1.8,1.3,4.1,1.4c2.3,0.1,4.2-0.4,4.2-1
		c0-0.7-1.8-1.3-4.1-1.4C173.4,248.7,171.6,249.1,171.5,249.8"/>
	<path clip-path="url(#SVGID_2_)" fill="#7E7C80" d="M171.5,249c0,0.7,1.8,1.3,4.1,1.4s4.1-0.4,4.2-1c0-0.7-1.8-1.3-4.1-1.4
		C173.3,247.9,171.5,248.3,171.5,249"/>
	<polygon clip-path="url(#SVGID_2_)" fill="#767478" points="182.8,250.7 179.8,257.7 178.5,257.1 182.2,250.2 	"/>
	<path clip-path="url(#SVGID_2_)" fill="#535254" d="M179,250.1c-0.1,0.5,1.2,1.2,3,1.6c1.8,0.4,3.3,0.3,3.4-0.2
		c0.1-0.5-1.2-1.2-3-1.6C180.6,249.4,179.1,249.5,179,250.1"/>
	<path clip-path="url(#SVGID_2_)" fill="#7E7C80" d="M179,249.4c-0.1,0.5,1.2,1.2,3,1.6c1.8,0.4,3.3,0.3,3.4-0.2
		c0.1-0.5-1.2-1.2-3-1.6C180.6,248.8,179.1,248.9,179,249.4"/>
	<polygon clip-path="url(#SVGID_2_)" fill="#6F6D70" points="203,247.8 201,256.6 199.3,256.1 202.2,247.4 	"/>
	<path clip-path="url(#SVGID_2_)" fill="#535254" d="M198.5,247.8c0,0.6,1.7,1.2,3.8,1.3c2.1,0.1,3.9-0.3,3.9-1
		c0-0.6-1.7-1.2-3.8-1.3C200.2,246.8,198.5,247.2,198.5,247.8"/>
	<path clip-path="url(#SVGID_2_)" fill="#7E7C80" d="M198.4,247.1c0,0.6,1.7,1.2,3.8,1.3c2.1,0.1,3.9-0.3,3.9-1
		c0-0.6-1.7-1.2-3.8-1.3C200.1,246,198.4,246.5,198.4,247.1"/>
	<polygon clip-path="url(#SVGID_2_)" fill="#6F6D70" points="209,248.7 206.2,255.2 205,255.6 208.4,248.2 	"/>
	<path clip-path="url(#SVGID_2_)" fill="#535254" d="M205.4,248.1c-0.1,0.5,1.2,1.2,2.8,1.5c1.7,0.4,3.1,0.3,3.2-0.2
		c0.1-0.5-1.1-1.2-2.8-1.5C206.9,247.5,205.5,247.6,205.4,248.1"/>
	<path clip-path="url(#SVGID_2_)" fill="#7E7C80" d="M205.4,247.5c-0.1,0.5,1.1,1.2,2.8,1.5c1.6,0.4,3.1,0.3,3.2-0.2
		c0.1-0.5-1.1-1.2-2.8-1.5C207,246.9,205.5,247,205.4,247.5"/>
	<polygon clip-path="url(#SVGID_2_)" fill="#6F6D70" points="192.8,246 190.7,254.7 189.1,254.2 192,245.5 	"/>
	<path clip-path="url(#SVGID_2_)" fill="#535254" d="M188.2,246c0,0.6,1.7,1.2,3.8,1.3c2.1,0.1,3.9-0.3,3.9-1c0-0.6-1.7-1.2-3.8-1.3
		C190,244.9,188.2,245.3,188.2,246"/>
	<path clip-path="url(#SVGID_2_)" fill="#7E7C80" d="M188.1,245.2c0,0.6,1.7,1.2,3.8,1.3c2.1,0.1,3.9-0.3,3.9-1
		c0-0.6-1.7-1.2-3.8-1.3C189.9,244.2,188.1,244.6,188.1,245.2"/>
	<polygon clip-path="url(#SVGID_2_)" fill="#6F6D70" points="198.7,246.8 194.9,255.4 194.7,252.8 198.1,246.4 	"/>
	<path clip-path="url(#SVGID_2_)" fill="#535254" d="M195.1,246.2c-0.1,0.5,1.2,1.2,2.8,1.5c1.7,0.4,3.1,0.3,3.2-0.2
		c0.1-0.5-1.1-1.2-2.8-1.5C196.7,245.6,195.2,245.7,195.1,246.2"/>
	<path clip-path="url(#SVGID_2_)" fill="#7E7C80" d="M195.2,245.6c-0.1,0.5,1.1,1.2,2.8,1.5c1.6,0.4,3.1,0.3,3.2-0.2
		c0.1-0.5-1.1-1.2-2.8-1.5C196.7,245,195.3,245.1,195.2,245.6"/>
	<polygon clip-path="url(#SVGID_2_)" fill="#6F6D70" points="203,250.6 201,259.4 199.3,258.9 202.2,250.2 	"/>
	<path clip-path="url(#SVGID_2_)" fill="#535254" d="M198.5,250.6c0,0.6,1.7,1.2,3.8,1.3c2.1,0.1,3.9-0.3,3.9-1
		c0-0.6-1.7-1.2-3.8-1.3C200.2,249.6,198.5,250,198.5,250.6"/>
	<path clip-path="url(#SVGID_2_)" fill="#7E7C80" d="M198.4,249.9c0,0.6,1.7,1.2,3.8,1.3c2.1,0.1,3.9-0.3,3.9-1
		c0-0.6-1.7-1.2-3.8-1.3C200.1,248.8,198.4,249.3,198.4,249.9"/>
	<polygon clip-path="url(#SVGID_2_)" fill="#6F6D70" points="209,251.5 206.2,258 205,257.4 208.4,251 	"/>
	<path clip-path="url(#SVGID_2_)" fill="#535254" d="M205.4,250.9c-0.1,0.5,1.2,1.2,2.8,1.5c1.7,0.4,3.1,0.3,3.2-0.2
		c0.1-0.5-1.1-1.2-2.8-1.5C206.9,250.3,205.5,250.4,205.4,250.9"/>
	<path clip-path="url(#SVGID_2_)" fill="#7E7C80" d="M205.4,250.3c-0.1,0.5,1.1,1.2,2.8,1.5c1.6,0.4,3.1,0.3,3.2-0.2
		c0.1-0.5-1.1-1.1-2.8-1.5C207,249.7,205.5,249.8,205.4,250.3"/>
	<polygon clip-path="url(#SVGID_2_)" fill="#6F6D70" points="190.9,248.8 188.9,257.5 187.2,257 190.1,248.3 	"/>
	<path clip-path="url(#SVGID_2_)" fill="#535254" d="M186.3,248.8c0,0.6,1.7,1.2,3.8,1.3c2.1,0.1,3.9-0.3,3.9-1
		c0-0.6-1.7-1.2-3.8-1.3C188.1,247.7,186.3,248.1,186.3,248.8"/>
	<path clip-path="url(#SVGID_2_)" fill="#7E7C80" d="M186.2,248c0,0.6,1.7,1.2,3.8,1.3c2.1,0.1,3.9-0.3,3.9-1c0-0.6-1.7-1.2-3.8-1.3
		C188,247,186.3,247.4,186.2,248"/>
	<polygon clip-path="url(#SVGID_2_)" fill="#6F6D70" points="196.8,249.6 194.1,256.2 192.8,255.6 196.3,249.2 	"/>
	<path clip-path="url(#SVGID_2_)" fill="#535254" d="M193.3,249c-0.1,0.5,1.2,1.2,2.8,1.5c1.7,0.4,3.1,0.3,3.2-0.2
		c0.1-0.5-1.2-1.2-2.8-1.5C194.8,248.4,193.4,248.5,193.3,249"/>
	<path clip-path="url(#SVGID_2_)" fill="#7E7C80" d="M193.3,248.4c-0.1,0.5,1.1,1.2,2.8,1.5c1.6,0.4,3.1,0.3,3.2-0.2
		c0.1-0.5-1.1-1.2-2.8-1.5C194.8,247.8,193.4,247.9,193.3,248.4"/>
	<polygon clip-path="url(#SVGID_2_)" fill="#6F6D70" points="187.2,249.7 185.1,258.5 183.5,258 186.3,249.3 	"/>
	<path clip-path="url(#SVGID_2_)" fill="#535254" d="M182.6,249.7c0,0.6,1.7,1.2,3.8,1.3c2.1,0.1,3.9-0.3,3.9-1
		c0-0.6-1.7-1.2-3.8-1.3C184.4,248.6,182.6,249.1,182.6,249.7"/>
	<path clip-path="url(#SVGID_2_)" fill="#7E7C80" d="M182.5,248.9c0,0.6,1.7,1.2,3.8,1.3c2.1,0.1,3.9-0.3,3.9-1
		c0-0.6-1.7-1.2-3.8-1.3C184.3,247.9,182.5,248.3,182.5,248.9"/>
	<polygon clip-path="url(#SVGID_2_)" fill="#6F6D70" points="193.1,250.5 190.3,257.1 189.1,256.5 192.5,250.1 	"/>
	<path clip-path="url(#SVGID_2_)" fill="#535254" d="M189.5,249.9c-0.1,0.5,1.2,1.2,2.8,1.5c1.7,0.4,3.1,0.3,3.2-0.2
		c0.1-0.5-1.1-1.2-2.8-1.5C191.1,249.3,189.6,249.4,189.5,249.9"/>
	<path clip-path="url(#SVGID_2_)" fill="#7E7C80" d="M189.6,249.3c-0.1,0.5,1.1,1.2,2.8,1.5c1.6,0.4,3.1,0.3,3.2-0.2
		c0.1-0.5-1.1-1.2-2.8-1.5C191.1,248.7,189.7,248.8,189.6,249.3"/>
	<polygon clip-path="url(#SVGID_2_)" fill="#2B2A2B" points="154.8,251.8 166.6,239.2 162.8,233.8 162.7,235.7 164.6,238.4 
		153.5,251.2 	"/>
	<polygon clip-path="url(#SVGID_2_)" fill="#2B2A2B" points="165.7,233.9 162.6,237.3 161.4,235.5 163.8,232.7 	"/>
	<polygon clip-path="url(#SVGID_2_)" fill="#3A393B" points="154.3,252.1 165.4,238.9 161.3,233.7 161.4,235.6 163.4,238.1 
		152.9,251.5 	"/>
	<polygon clip-path="url(#SVGID_2_)" fill="#3A393B" points="164.3,233.6 161.3,237.2 160,235.5 162.3,232.5 	"/>
	<polygon clip-path="url(#SVGID_2_)" fill="#535254" points="154.6,251.6 163.9,237.1 159.2,232.4 159.5,234.3 161.8,236.6 
		153.2,251.2 	"/>
	<polygon clip-path="url(#SVGID_2_)" fill="#535254" points="162.1,232 159.7,235.9 158.1,234.4 160,231.2 	"/>
	<polygon clip-path="url(#SVGID_2_)" fill="#535254" points="152.3,251.9 160.6,236.7 155.5,232.4 156,234.3 158.5,236.4 
		150.9,251.6 	"/>
	<polygon clip-path="url(#SVGID_2_)" fill="#535254" points="158.4,231.7 156.3,235.8 154.6,234.4 156.2,231.1 	"/>
	<path clip-path="url(#SVGID_2_)" fill="#C9C299" d="M147.4,215.6c0,0-43.9-33.1-69.9-12.9c0,0,10.1-32.1,27-36.1
		c0,0,51.3,10,51.5,59.9L147.4,215.6z"/>
	<path clip-path="url(#SVGID_2_)" fill="#4F4D4F" d="M104.5,226.6c0,10.7,8.7,19.4,19.4,19.4c10.7,0,19.4-8.7,19.4-19.4
		c0-10.7-8.7-19.4-19.4-19.4C113.2,207.1,104.5,215.8,104.5,226.6"/>
	<path clip-path="url(#SVGID_2_)" fill="#333334" d="M262.6,308c0,0-24,40.3,0.5,66.9c0.8,2.2-6.4,8.4-13.4,0.1
		c-7-8.4-26.8-51.1-11.1-72.9L262.6,308z"/>
	<path clip-path="url(#SVGID_2_)" fill="#333334" d="M257.7,379.1c0,0-46.2,6.2-45.5,0.3C212.8,373.6,224.3,358.6,257.7,379.1"/>
	<path clip-path="url(#SVGID_2_)" fill="#333334" d="M344.3,308c0,0-24,40.3,0.5,66.9c0.8,2.2-6.4,8.4-13.4,0.1
		c-7-8.4-26.8-51.1-11.1-72.9L344.3,308z"/>
	<path clip-path="url(#SVGID_2_)" fill="#333334" d="M340.4,379.1c0,0-46.2,6.2-45.5,0.3C295.5,373.6,307,358.6,340.4,379.1"/>
	<path clip-path="url(#SVGID_2_)" fill="#333334" d="M199,237.1c0,0,19.7,20.4,41.8,6l-2.7-16.1c0,0-19.4,21.1-38.5,5.7
		C199.6,232.6,197.5,235.7,199,237.1"/>
	<path clip-path="url(#SVGID_2_)" fill="#333334" d="M200.1,233.2c0,0-0.8-4.2-3.2-4.9c-2.4-0.7-3.1-1.2-3.1-1.2s-5.7-2.2-8.1,1.9
		c-1.3,2.3,5.8-0.5,5.8-0.5s-4.9,1.3-2.1,4.7c4.2,5.2,4,3.6,4.4,2.2c0.4-1.3,1.8,2.1,4.7,1.2C201.4,235.7,200.1,233.2,200.1,233.2"
		/>
	<path clip-path="url(#SVGID_2_)" fill="#414042" d="M226,226.8c4.1,61.3,3.2,70,12.7,79.5c46.3,46.2,128.8,47.3,128.8-121
		c0-74.7-53.1-132.6-118.4-135.2C132.5,45.4,221,152.2,226,226.8"/>
	<path clip-path="url(#SVGID_2_)" fill="#333334" d="M283.4,208.6c0,0-9.3,6.3-16.2,5.3c0,0,6.7,32.7,6.4,35.7l-15,18.3l-11.4-19
		l12.4-43.9L283.4,208.6z"/>
	<path clip-path="url(#SVGID_2_)" fill="#333334" d="M359.4,139.6c0,0-47.5,65.4-133.5,50.1c0,0,28.7,31.5,77.2,18.6
		c41.7-11,12.5,114.9-27.8,121.4c0,0,57.2,18,78-34.8C371.9,248.2,374,165.4,359.4,139.6"/>
	<path clip-path="url(#SVGID_2_)" fill="#8C2727" d="M263.6,211.2c9.6,1.6,19.8-6.9,19.8-6.9c-2.8-5.6-38.3-2.6-38.3-2.6
		c1.7,5.9,10.6,8.1,10.6,8.1s-1.4,21.2-9.8,37l11.8,19c0,0,13.3-14.2,13.3-19.2C271,246.8,267.2,222.6,263.6,211.2"/>
	<path clip-path="url(#SVGID_2_)" fill="#333334" d="M356.4,36.8c0,0,36-10.5,40,12.8c3.9,23.3,52.7-10.6,52.7-10.6
		s-0.8,31.6-26.3,41.3c-25.5,9.8-30.2-0.9-30.2-0.9s40.4,30.6,30.6,49.8c0,0-22.3-26.9-35.2-19.2C375.1,117.7,330,52.6,356.4,36.8"
		/>
	<path clip-path="url(#SVGID_2_)" fill="#414042" d="M149.4,102.4c8.1,74.2,37.3,113,130.3,102.9c65-7.1,113.2-54.3,105.1-128.5
		C376.8,2.5,319.6-5,254.6,2.1C189.6,9.2,141.4,28.1,149.4,102.4"/>
	<path clip-path="url(#SVGID_2_)" fill="#F9B48C" d="M358.7,71c0,0-137.7-21.2-208.3,26.9c0,0-9.4,39.6,96.4,28.1
		C371.9,112.3,358.7,71,358.7,71"/>
	<path clip-path="url(#SVGID_2_)" fill="#333334" d="M312.1,99.3c1.2,2,3.7,2.7,5.7,1.5c2-1.2,2.7-3.7,1.5-5.7
		c-1.2-2-3.7-2.7-5.7-1.5C311.6,94.8,310.9,97.3,312.1,99.3"/>
	<path clip-path="url(#SVGID_2_)" fill="#333334" d="M184.3,112.5c1.2,2,3.7,2.7,5.7,1.5c2-1.2,2.7-3.7,1.5-5.7
		c-1.2-2-3.7-2.7-5.7-1.5C183.8,108,183.2,110.6,184.3,112.5"/>
	<path clip-path="url(#SVGID_2_)" fill="#F58E54" d="M150.4,97.8c0,0,118.3-49.2,188.9-21.9c17.8,18-22,35.6-22,35.6
		s45.3-11.7,42.1-40.6C359.4,70.9,229.6,43.5,150.4,97.8"/>
	<path clip-path="url(#SVGID_2_)" fill="#333334" d="M288,248.7c0,0,25.1,13.1,41.5-7.5l-6.6-15.4c0,0-12.8,27.1-35.7,18.5
		C287.2,244.2,286.1,247.8,288,248.7"/>
	<path clip-path="url(#SVGID_2_)" fill="#333334" d="M287.8,244c0,0-2.1-3.7-4.5-3.6c-2.4,0.1-3.3-0.2-3.3-0.2s-6.4-2.6-8.2,3.4
		c-0.7,2.6,6.5-1.3,6.5-1.3s-4.2,2.7-0.6,5.1c5.6,3.6,4.9,2.1,4.8,0.7c-0.1-1.4,2.3,1.4,4.8-0.3C289.8,246,287.8,244,287.8,244"/>
	<polygon clip-path="url(#SVGID_2_)" fill="#765020" points="129.5,395.8 349.9,395.8 366.4,269.8 113.1,269.8 	"/>
	<rect x="109.1" y="269.8" clip-path="url(#SVGID_2_)" fill="#573B18" width="265.5" height="6.6"/>
	<rect x="124.1" y="392.5" clip-path="url(#SVGID_2_)" fill="#573B18" width="232.5" height="6.6"/>
	<path clip-path="url(#SVGID_2_)" fill="#949296" d="M140.7,249.6c3.6,0,3.6,0,75,6.3l10,13.8H113.5v-20L140.7,249.6z"/>
	<path clip-path="url(#SVGID_2_)" fill="#838185" d="M113.3,259.5c0,0,11.9,8.4,23.4,4.5c10.7-3.9,14.3-6.4,14.3-6.4h65.6l-0.8-1.8
		l-102.8-6.9L113.3,259.5z"/>
	<path clip-path="url(#SVGID_2_)" fill="#535254" d="M100.9,232.7c0,15.2,12.3,27.6,27.6,27.6c15.2,0,27.6-12.3,27.6-27.6
		c0-15.2-12.3-27.6-27.6-27.6C113.2,205.1,100.9,217.5,100.9,232.7"/>
	<path clip-path="url(#SVGID_2_)" fill="#949296" d="M109.5,231.6c0,10.7,8.7,19.4,19.4,19.4c10.7,0,19.4-8.7,19.4-19.4
		c0-10.7-8.7-19.4-19.4-19.4C118.2,212.1,109.5,220.8,109.5,231.6"/>
	<path clip-path="url(#SVGID_2_)" fill="#535254" d="M101.2,191.8c1.3-1.1,7.8-6.7,7.8-9.2c0-1.5,4.9-5.7,8.1-7.9l-0.6-0.8
		c-1.4,1-8.5,6.3-8.5,8.7c0,1.5-4.6,6-7.5,8.4L101.2,191.8z"/>
	
		<rect x="118.3" y="183" transform="matrix(-0.6163 0.7875 -0.7875 -0.6163 343.5721 199.5232)" clip-path="url(#SVGID_2_)" fill="#535254" width="9.7" height="1"/>
	
		<rect x="125.9" y="188.8" transform="matrix(-0.4804 0.877 -0.877 -0.4804 359.6661 165.5034)" clip-path="url(#SVGID_2_)" fill="#535254" width="9.9" height="1"/>
	
		<rect x="135.6" y="193.8" transform="matrix(-0.5612 0.8277 -0.8277 -0.5612 378.144 188.2136)" clip-path="url(#SVGID_2_)" fill="#535254" width="7.1" height="1"/>
	<path clip-path="url(#SVGID_2_)" fill="#C9C299" d="M134.5,125.7c0,0-44.5,14.7-48,25.6c0,0-31.5-20.3-34.9-20.4
		c-3.4-0.2,38.8-28.2,43.1-41.5L134.5,125.7z"/>
	<path clip-path="url(#SVGID_2_)" fill="#535254" d="M85.2,140.3l0.7-0.7c-0.5-0.5-13.2-12.1-19.3-12.8l-0.1,1
		C72.2,128.4,85,140.2,85.2,140.3"/>
	<path clip-path="url(#SVGID_2_)" fill="#535254" d="M90.7,132.2l0.9-0.4c-1.4-3.1-15.3-11-16.9-11.9l-0.5,0.9
		C78.5,123.1,89.7,129.8,90.7,132.2"/>
	<path clip-path="url(#SVGID_2_)" fill="#535254" d="M121.8,122.6l0.7-0.7c-4.6-5-28.3-23.3-29.3-24.1l-0.6,0.8
		C92.9,98.9,117.2,117.7,121.8,122.6"/>
	<path clip-path="url(#SVGID_2_)" fill="#535254" d="M111.2,124.4l0.5-0.8c-5.6-3.6-23.5-17.2-23.6-17.3l-0.6,0.8
		C87.7,107.2,105.6,120.8,111.2,124.4"/>
	<path clip-path="url(#SVGID_2_)" fill="#535254" d="M100.1,126.3l0.8-0.6c-1.9-2.4-17.1-12.2-17.8-12.7l-0.5,0.8
		C88,117.4,98.7,124.5,100.1,126.3"/>
	<path clip-path="url(#SVGID_2_)" fill="#C9C299" d="M4.2,130.5c0,0,42.1,27.9,53.7,23.6c0,0,3.8,40.2,5.9,43.2
		c2.1,3-49.7-14.1-63.9-8.8L4.2,130.5z"/>
	<path clip-path="url(#SVGID_2_)" fill="#535254" d="M49.5,162.6l-1.1-0.1c-0.1,0.8-1.5,19.3,2,24.9l0.9-0.6
		C48.1,181.5,49.5,162.8,49.5,162.6"/>
	<path clip-path="url(#SVGID_2_)" fill="#535254" d="M38.9,163.3l-1-0.5c-1.7,3.2,0.9,20.3,1.2,22.2l1.1-0.2
		C39.4,179.7,37.6,165.7,38.9,163.3"/>
	<path clip-path="url(#SVGID_2_)" fill="#535254" d="M10.1,143.3l-1.1-0.2c-1.2,7.3-0.9,39.5-0.9,40.8l1.1,0
		C9.3,183.6,9,150.5,10.1,143.3"/>
	<path clip-path="url(#SVGID_2_)" fill="#535254" d="M18.7,151.1l-1.1,0.1c0.7,7.1,1.1,31.3,1.1,31.6l1.1,0
		C19.7,182.5,19.3,158.3,18.7,151.1"/>
	<path clip-path="url(#SVGID_2_)" fill="#535254" d="M27.7,159.2l-1-0.3c-0.8,3.2,1,22.7,1.1,23.5l1.1-0.1
		C28.2,175.4,27.1,161.6,27.7,159.2"/>
	<path clip-path="url(#SVGID_2_)" fill="#C9C299" d="M34.5,266c0,0,38.7-26.5,39-37.9c0,0,35.9,10.7,39.2,9.9
		c3.3-0.8-29.4,37.9-29.8,51.8L34.5,266z"/>
	<path clip-path="url(#SVGID_2_)" fill="#535254" d="M77.8,238.2l-0.4,0.9c0.7,0.3,16,8,22.1,6.9l-0.2-1
		C93.6,246,78,238.3,77.8,238.2"/>
	<path clip-path="url(#SVGID_2_)" fill="#535254" d="M74.8,247.6l-0.8,0.6c2.2,2.6,17.7,6.3,19.5,6.7l0.2-1
		C89,252.9,76.4,249.6,74.8,247.6"/>
	<path clip-path="url(#SVGID_2_)" fill="#535254" d="M47.5,265.4l-0.5,0.9c5.9,3.5,33.6,14.5,34.8,15l0.4-0.9
		C81.9,280.2,53.3,268.9,47.5,265.4"/>
	<path clip-path="url(#SVGID_2_)" fill="#535254" d="M57.2,260.8l-0.3,1c6.4,1.9,27.3,10,27.5,10.1l0.4-0.9
		C84.6,270.8,63.6,262.7,57.2,260.8"/>
	<path clip-path="url(#SVGID_2_)" fill="#535254" d="M67.3,255.8l-0.6,0.8c2.4,1.8,19.9,7,20.6,7.2l0.3-1
		C81.4,261,69.2,257.1,67.3,255.8"/>
	<path clip-path="url(#SVGID_2_)" fill="#333334" d="M199.5,99.2c0,0-11-10.4-21.3,0.7C178.2,99.9,188.2,78,199.5,99.2"/>
	<path clip-path="url(#SVGID_2_)" fill="#333334" d="M326.5,85.2c0,0-11-10.4-21.3,0.7C305.2,85.9,315.2,64,326.5,85.2"/>
</g>
</svg>
