<?xml version="1.0" encoding="utf-8"?>
<!-- Generator: Adobe Illustrator 18.0.0, SVG Export Plug-In . SVG Version: 6.00 Build 0)  -->
<!DOCTYPE svg PUBLIC "-//W3C//DTD SVG 1.1//EN" "http://www.w3.org/Graphics/SVG/1.1/DTD/svg11.dtd">
<svg version="1.1" id="Warstwa_1" xmlns="http://www.w3.org/2000/svg" xmlns:xlink="http://www.w3.org/1999/xlink" x="0px" y="0px"
	 viewBox="0 0 311.8 411.6" enable-background="new 0 0 311.8 411.6" xml:space="preserve">
<g>
	<defs>
		<rect id="SVGID_1_" width="311.8" height="411.6"/>
	</defs>
	<clipPath id="SVGID_2_">
		<use xlink:href="#SVGID_1_"  overflow="visible"/>
	</clipPath>
	<path clip-path="url(#SVGID_2_)" fill="#7BC9BD" d="M216.2,346.7c0,0,82.6,22.2,82.6,48.8c0,26.7-254.6,14.3-273.6,4.2
		C6.3,389.5,50.3,327.8,216.2,346.7"/>
	<path clip-path="url(#SVGID_2_)" fill="#6EB4A9" d="M196.2,354.3c0,0,54.3,12.4,54.3,27.3c0,14.9-167.3,8-179.8,2.4
		C58.3,378.3,87.2,343.8,196.2,354.3"/>
	<path clip-path="url(#SVGID_2_)" fill="#6EB4A9" d="M69.6,351c1.5-1.4-8.1-21.9-9.1-14C59.4,344.8,69.6,351,69.6,351"/>
	<path clip-path="url(#SVGID_2_)" fill="#6EB4A9" d="M63.4,354c1.2-1.1-6.3-17.1-7.1-11C55.4,349.2,63.4,354,63.4,354"/>
	<path clip-path="url(#SVGID_2_)" fill="#6EB4A9" d="M73.8,348.1c1.5,0,4.9-17.7,0.8-13.6C70.5,338.7,73.8,348.1,73.8,348.1"/>
	<path clip-path="url(#SVGID_2_)" fill="#6EB4A9" d="M251.8,354.5c1.5,0.4,8.3-16.2,3.4-13.2C250.4,344.4,251.8,354.5,251.8,354.5"
		/>
	<path clip-path="url(#SVGID_2_)" fill="#6EB4A9" d="M247.2,351.5c1.1,0.3,6.5-12.6,2.7-10.3C246.1,343.6,247.2,351.5,247.2,351.5"
		/>
	<path clip-path="url(#SVGID_2_)" fill="#6EB4A9" d="M255.4,356.1c0.7,1.1,12.1-4.9,7.9-5.9C259.1,349.3,255.4,356.1,255.4,356.1"/>
	<path clip-path="url(#SVGID_2_)" fill="#333334" d="M136.7,303.5c0,0-24,40.3,0.5,66.9c0.8,2.2-6.4,8.4-13.4,0.1
		c-7-8.4-26.8-51.1-11.1-72.9L136.7,303.5z"/>
	<path clip-path="url(#SVGID_2_)" fill="#333334" d="M132.8,374.5c0,0-46.2,6.2-45.5,0.3C87.9,369,99.4,354,132.8,374.5"/>
	<path clip-path="url(#SVGID_2_)" fill="#333334" d="M209.4,303.5c0,0-24,40.3,0.5,66.9c0.8,2.2-6.4,8.4-13.4,0.1
		c-7-8.4-26.8-51.1-11.1-72.9L209.4,303.5z"/>
	<path clip-path="url(#SVGID_2_)" fill="#333334" d="M205.5,374.5c0,0-46.2,6.2-45.5,0.3C160.6,369,172.1,354,205.5,374.5"/>
	<path clip-path="url(#SVGID_2_)" fill="#414042" d="M101.1,222.2c4.1,61.3,3.2,70,12.7,79.5c46.3,46.2,128.8,47.3,128.8-121
		c0-74.7-53.1-132.6-118.4-135.2C7.6,40.9,96.1,147.7,101.1,222.2"/>
	<path clip-path="url(#SVGID_2_)" fill="#333334" d="M234.6,135.1c0,0-47.6,80.4-133.5,65.1c0,0,39.7,25.8,77.2,5.6
		s12.3,112.9-27.8,119.4c0,0,57.2,18,78-34.8C247,243.6,249.1,160.8,234.6,135.1"/>
	<path clip-path="url(#SVGID_2_)" fill="#333334" d="M175.8,245.5c0,0,28.3,0.1,33.4-25.8l-13.4-9.3c0,0,1.6,28.6-22.7,31.5
		C173,241.9,173.7,245.6,175.8,245.5"/>
	<path clip-path="url(#SVGID_2_)" fill="#333334" d="M173.5,241.4c0,0-3.6-2.4-5.7-1.1c-2.1,1.2-3,1.3-3,1.3s-8-1.2-8.5,1.4
		c-0.4,2.6,7.9,1.2,7.9,1.2s-2.5,4.4,1.9,4.8c6.7,0.6,5.3-0.4,4.6-1.6c-0.7-1.2,2.7,0.2,4.1-2.5
		C176.2,242.3,173.5,241.4,173.5,241.4"/>
	<path clip-path="url(#SVGID_2_)" fill="#333334" d="M219.9,45.5c0,0,37-6.6,38.4,17.1c1.4,23.6,53.5-4.9,53.5-4.9
		s-4.2,31.3-30.6,38.2c-26.4,7-29.9-4.2-29.9-4.2s36.8,34.8,25,52.8c0,0-19.3-29.2-32.9-22.9C229.7,127.9,191.9,58.4,219.9,45.5"/>
	<path clip-path="url(#SVGID_2_)" fill="#414042" d="M7,88.3c0,74.7,24.8,116.4,118.4,116.4c65.4,0,118.4-41.7,118.4-116.4
		c0-74.7-56-88.3-121.4-88.3C57,0,7,13.6,7,88.3"/>
	<path clip-path="url(#SVGID_2_)" fill="#F9B48C" d="M218.5,79.7c0,0-134.6-36-210,4.2c0,0-13.6,38.4,92.8,38.4
		C227.1,122.3,218.5,79.7,218.5,79.7"/>
	<path clip-path="url(#SVGID_2_)" fill="#F58E54" d="M8.5,83.9c0,0,122.9-36.1,190.2-1.3c15.8,19.8-25.7,33-25.7,33
		s46.3-6.8,46.3-35.8C219.2,79.7,93.1,38.5,8.5,83.9"/>
	<path clip-path="url(#SVGID_2_)" fill="#333334" d="M164.9,104c0,3.2,2.6,5.7,5.7,5.7c3.2,0,5.7-2.6,5.7-5.7c0-3.2-2.6-5.7-5.7-5.7
		C167.5,98.3,164.9,100.8,164.9,104"/>
	<path clip-path="url(#SVGID_2_)" fill="#333334" d="M44.4,105.1c0,3.2,2.6,5.7,5.7,5.7s5.7-2.6,5.7-5.7c0-3.2-2.6-5.7-5.7-5.7
		S44.4,101.9,44.4,105.1"/>
	<path clip-path="url(#SVGID_2_)" fill="#333334" d="M187.4,81.5c0,0-19.9-3.6-28.9,7.5C158.5,89.1,168.6,65.6,187.4,81.5"/>
	<path clip-path="url(#SVGID_2_)" fill="#333334" d="M63.5,87.6c0,0-16.2-12-29.3-6.1C34.2,81.6,53.7,65,63.5,87.6"/>
	<path clip-path="url(#SVGID_2_)" fill="#87878C" d="M20.8,301c0.3,4.8,4.4,8.5,9.2,8.3l137.2,8.6c4.8-0.3,8.5-4.4,8.3-9.2
		l1.2-108.7c-0.3-4.8-4.4-8.5-9.2-8.3L12.3,184c-4.8,0.3-8.5,4.4-8.3,9.2L20.8,301z"/>
	<path clip-path="url(#SVGID_2_)" fill="#A0A0A5" d="M16.8,301c0.3,4.8,4.4,8.5,9.2,8.3l137.2,8.6c4.8-0.3,8.5-4.4,8.3-9.2
		l1.2-108.7c-0.3-4.8-4.4-8.5-9.2-8.3L8.3,184c-4.8,0.3-8.5,4.4-8.3,9.2L16.8,301z"/>
	<path clip-path="url(#SVGID_2_)" fill="#414042" d="M6.2,239.8c0,0,9-1,9,0s2,2.1-3.2,2.5c0,0,3.6,3.4-1.1,7c0,0-4.7,1.6-3.5-1.9
		C7.5,247.3,3.2,243.8,6.2,239.8"/>
	<path clip-path="url(#SVGID_2_)" fill="#808085" d="M65.3,251.6c-1,13.2,8.8,24.7,22,25.7c13.2,1,24.7-8.8,25.7-22
		c1-13.2-8.8-24.7-22-25.7C77.8,228.6,66.3,238.4,65.3,251.6"/>
	<path clip-path="url(#SVGID_2_)" fill="#A3A4A9" d="M98.7,247.8c0,0,4.6-0.4,4.5,2.5c-0.1,2.9,6.6-0.1,6.6-0.1s-0.8,3.8-4.1,4.4
		c-3.3,0.6-3.6-0.8-3.6-0.8s4.2,4.6,2.5,6.7c0,0-2.1-3.8-3.8-3.1C99.1,258,95.1,249.1,98.7,247.8"/>
	<path clip-path="url(#SVGID_2_)" fill="#D9D9E0" d="M72.2,251c-0.7,9.1,1.9,14.5,13.3,15.4c8,0.6,14.9-4,15.6-13.1
		c0.7-9.1-6-11.3-14-12C79.2,240.7,72.9,241.9,72.2,251"/>
	<path clip-path="url(#SVGID_2_)" fill="#808085" d="M98.2,252c0,0-16.1-5.7-25.7-1.5c0,0-2,4.6,11,5.6
		C98.8,257.3,98.2,252,98.2,252"/>
	<path clip-path="url(#SVGID_2_)" fill="#D9D9E0" d="M92.7,253.7c0,0.4,0.3,0.7,0.6,0.8c0.4,0,0.7-0.3,0.8-0.6
		c0-0.4-0.3-0.7-0.6-0.8C93,253,92.7,253.3,92.7,253.7"/>
	<path clip-path="url(#SVGID_2_)" fill="#D9D9E0" d="M77.1,253.2c0,0.4,0.3,0.7,0.6,0.8c0.4,0,0.7-0.3,0.8-0.6
		c0-0.4-0.3-0.7-0.6-0.8C77.5,252.5,77.2,252.8,77.1,253.2"/>
	<path clip-path="url(#SVGID_2_)" fill="#D9D9E0" d="M94.3,251.9c0,0-2.4-0.6-3.6,0.6C90.7,252.6,92.2,249.8,94.3,251.9"/>
	<path clip-path="url(#SVGID_2_)" fill="#D9D9E0" d="M79.1,251.5c0,0-1.9-1.6-3.5-1C75.6,250.5,78.1,248.6,79.1,251.5"/>
</g>
</svg>
