<?xml version="1.0" encoding="utf-8"?>
<!-- Generator: Adobe Illustrator 18.0.0, SVG Export Plug-In . SVG Version: 6.00 Build 0)  -->
<!DOCTYPE svg PUBLIC "-//W3C//DTD SVG 1.1//EN" "http://www.w3.org/Graphics/SVG/1.1/DTD/svg11.dtd">
<svg version="1.1" id="Warstwa_1" xmlns="http://www.w3.org/2000/svg" xmlns:xlink="http://www.w3.org/1999/xlink" x="0px" y="0px"
	 viewBox="0 0 438.6 399.7" enable-background="new 0 0 438.6 399.7" xml:space="preserve">
<g>
	<defs>
		<rect id="SVGID_1_" width="438.6" height="399.7"/>
	</defs>
	<clipPath id="SVGID_2_">
		<use xlink:href="#SVGID_1_"  overflow="visible"/>
	</clipPath>
	<path clip-path="url(#SVGID_2_)" fill="#7BC9BD" d="M267.8,334.8c0,0,82.6,22.2,82.6,48.8c0,26.7-254.6,14.3-273.6,4.2
		S101.9,315.9,267.8,334.8"/>
	<path clip-path="url(#SVGID_2_)" fill="#6EB4A9" d="M247.8,342.4c0,0,54.3,12.4,54.3,27.3c0,14.9-167.3,8-179.8,2.4
		C109.9,366.4,138.8,331.9,247.8,342.4"/>
	<path clip-path="url(#SVGID_2_)" fill="#6EB4A9" d="M121.2,339.1c1.5-1.4-8.1-21.9-9.1-14C111,332.9,121.2,339.1,121.2,339.1"/>
	<path clip-path="url(#SVGID_2_)" fill="#6EB4A9" d="M115,342.1c1.2-1.1-6.3-17.1-7.1-11C107,337.2,115,342.1,115,342.1"/>
	<path clip-path="url(#SVGID_2_)" fill="#6EB4A9" d="M125.4,336.2c1.5,0,4.9-17.7,0.8-13.6C122.1,326.7,125.4,336.2,125.4,336.2"/>
	<path clip-path="url(#SVGID_2_)" fill="#6EB4A9" d="M303.4,342.6c1.5,0.4,8.3-16.2,3.4-13.2C302,332.5,303.4,342.6,303.4,342.6"/>
	<path clip-path="url(#SVGID_2_)" fill="#6EB4A9" d="M298.8,339.6c1.1,0.3,6.5-12.6,2.7-10.3C297.7,331.7,298.8,339.6,298.8,339.6"
		/>
	<path clip-path="url(#SVGID_2_)" fill="#6EB4A9" d="M307,344.2c0.7,1.1,12.1-4.9,7.9-5.9C310.7,337.4,307,344.2,307,344.2"/>
	<path clip-path="url(#SVGID_2_)" fill="#333334" d="M100.4,241.6c0,0,27.4,6.2,38.9-13.9l-10.6-10.5c0,0-5.8,23.8-30,21
		C98.7,238.1,98.4,241.3,100.4,241.6"/>
	<path clip-path="url(#SVGID_2_)" fill="#333334" d="M99.4,238.2c0,0-2.5-3.5-3.4-3c-1,0.4,1.4,2,0.8,2.2c-0.6,0.1-4.4-2.4-4.8-1.5
		c-0.4,0.9,2.8,1.5,2.1,2.1c-0.6,0.6-3.1-0.6-2.8,0.7c0.3,1.3,2.6,0.3,2.6,0.3s-1.8,1.4-0.7,1.7c1.1,0.3,1.5-0.6,1.5-0.6
		s2.8,1.7,5.8,1.6C100.4,241.6,102,239.1,99.4,238.2"/>
	<path clip-path="url(#SVGID_2_)" fill="#333334" d="M187.7,299.6c0,0-43.9,16.6-41.3,52.6c-0.8,2.2-10.2,2.6-10.5-8.3
		c-0.3-10.9,10.9-56.6,36.8-63.9L187.7,299.6z"/>
	<path clip-path="url(#SVGID_2_)" fill="#333334" d="M140.3,352.7c0,0-40-23.9-35.8-28.1C108.7,320.4,127.1,315.9,140.3,352.7"/>
	<path clip-path="url(#SVGID_2_)" fill="#333334" d="M256.8,282.8c0,0,7.3,46.3,43.2,51.1c2,1.2,0.5,10.5-10.3,8.6
		c-10.8-1.9-53.2-22.2-55.1-49L256.8,282.8z"/>
	<path clip-path="url(#SVGID_2_)" fill="#333334" d="M299.2,340c0,0-31.5,34.3-34.8,29.4C261.1,364.4,260.4,345.5,299.2,340"/>
	<path clip-path="url(#SVGID_2_)" fill="#414042" d="M132.9,230.2c21,57.7,22.5,66.3,34.4,72.8c57.4,31.4,136.9,9.5,90-152.1
		c-20.8-71.7-87.9-112.6-151.4-96.9C-7.5,82.1,107.3,160,132.9,230.2"/>
	<path clip-path="url(#SVGID_2_)" fill="#333334" d="M236.8,109.4c0,0-23.3,90.5-110,99.7c0,0,45.3,13.7,75.7-16.1
		c30.4-29.8,43.3,105,6.6,122.5c0,0,59.9,1.4,65.2-55.1C279,210.1,257.9,130,236.8,109.4"/>
	<path clip-path="url(#SVGID_2_)" fill="#333334" d="M197.7,27.4c0,0,33.7-16.6,41.6,5.7c7.9,22.3,50.1-19.6,50.1-19.6
		s4.7,31.2-18.7,45.2c-23.4,14-29.9,4.3-29.9,4.3s45.1,23.1,38.8,43.8c0,0-26.6-22.7-38-12.9C230.1,103.8,174.5,47.5,197.7,27.4"/>
	<path clip-path="url(#SVGID_2_)" fill="#414042" d="M5.2,127.8c20.8,71.7,56.3,104.9,146.2,78.8c62.8-18.2,102.1-73.1,81.3-144.8
		C211.8-9.9,154.2-7.4,91.4,10.9C28.6,29.1-15.6,56.1,5.2,127.8"/>
	<path clip-path="url(#SVGID_2_)" fill="#F9B48C" d="M205.9,60.7c0,0-139.3,2.9-200.5,62.5c0,0-2.4,40.7,99.8,11
		C226.1,99.1,205.9,60.7,205.9,60.7"/>
	<path clip-path="url(#SVGID_2_)" fill="#F58E54" d="M5.4,123.2c0,0,108-68.9,182.3-54.3c20.6,14.6-15.5,38.9-15.5,38.9
		s42.5-19.4,34.4-47.3C206.6,60.5,74,56,5.4,123.2"/>
	<path clip-path="url(#SVGID_2_)" fill="#333334" d="M161.2,99.9c0.9,3,4.1,4.8,7.1,3.9c3-0.9,4.8-4.1,3.9-7.1
		c-0.9-3-4.1-4.8-7.1-3.9C162.1,93.7,160.3,96.9,161.2,99.9"/>
	<path clip-path="url(#SVGID_2_)" fill="#333334" d="M44.8,132.5c0.9,3,4.1,4.8,7.1,3.9c3-0.9,4.8-4.1,3.9-7.1
		c-0.9-3-4.1-4.8-7.1-3.9C45.7,126.3,43.9,129.5,44.8,132.5"/>
	<path clip-path="url(#SVGID_2_)" fill="#333334" d="M176.6,71.1c0,0-20.1,2.1-25.7,15.3C150.9,86.4,154,61,176.6,71.1"/>
	<path clip-path="url(#SVGID_2_)" fill="#333334" d="M59.2,111.4c0,0-18.9-7-29.8,2.3C29.4,113.8,43.5,92.4,59.2,111.4"/>
	<path clip-path="url(#SVGID_2_)" fill="#F1D571" d="M228.1,235.2c0,0-6.4-22.8-2.9-39.8c3.8-18.6,10.5-39,24-33.9
		c15.8,6,11.6,115.3,67.3,135c57.4,20.2,143.4-2,117.4-104.3c-19.5-76.8-148-66.6-170.8-65c-30.2,2.1-42.2,38.2-50.9,67.2
		c-1,3.3-2.6,9.3-3.2,12.5c-2,9.4-11.8,17.2-11.1,24.1c0,0,6.1,3,13.9,5.5C221.6,239.6,228.1,235.2,228.1,235.2"/>
	<path clip-path="url(#SVGID_2_)" fill="#F1CF54" d="M350.4,145c0,0,68.4,13.4,55.8,65.8c-12.8,53.1-65,30-75,6.4
		C321.2,193.5,320.3,145.2,350.4,145"/>
	<path clip-path="url(#SVGID_2_)" fill="#F1CD4D" d="M252.6,148.5c44.9-4.9,11.6,170.4,137.2,137.7c48.5-12.6,41.3-56.1,46.9-80.5
		c0.8,5,1.4,9.8,1.7,14.4c-0.8,10.1-2.1,22.1-3.9,34.8c-16,48.6-75.3,57.1-118.4,41.7c-55.6-19.9-50.8-129.3-66.6-135.3
		c-13.5-5.2-20.3,15.3-24.2,33.8c-3.6,16.9,2.7,39.8,2.7,39.8s-5.5,4.3-15.5,1.1C212.5,235.9,217.3,152.4,252.6,148.5"/>
	<path clip-path="url(#SVGID_2_)" fill="#333334" d="M249.2,161.5c2.1,0.4,10,43.7-12.7,51.3s-28.9,1-28.9,1l1.9-5
		c0,0,28.7-2.4,25.1-27.7C234.6,181.2,231.5,158.5,249.2,161.5"/>
	<path clip-path="url(#SVGID_2_)" fill="#333334" d="M211.3,207.8c0,0-3.4-2.3-5.1-0.8s-5.1,7.8-2.9,9.8s9.5,0,9.5,0L211.3,207.8z"
		/>
	<path clip-path="url(#SVGID_2_)" fill="#F1CD4D" d="M247.4,131.9c0,0,70.7-28.4,158.9,20.4c-21.8-3.5-57.8-37.5-149.2-17.7
		c0,0,16.4-3,44.9,26.6c0,0-54.7-46.4-80.4,5.3C221.6,166.5,224.4,146.3,247.4,131.9"/>
</g>
</svg>
