<?xml version="1.0" encoding="utf-8"?>
<!-- Generator: Adobe Illustrator 18.0.0, SVG Export Plug-In . SVG Version: 6.00 Build 0)  -->
<!DOCTYPE svg PUBLIC "-//W3C//DTD SVG 1.1//EN" "http://www.w3.org/Graphics/SVG/1.1/DTD/svg11.dtd">
<svg version="1.1" id="Warstwa_1" xmlns="http://www.w3.org/2000/svg" xmlns:xlink="http://www.w3.org/1999/xlink" x="0px" y="0px"
	 viewBox="0 0 435.9 411.6" enable-background="new 0 0 435.9 411.6" xml:space="preserve">
<g>
	<defs>
		<rect id="SVGID_1_" width="435.9" height="411.6"/>
	</defs>
	<clipPath id="SVGID_2_">
		<use xlink:href="#SVGID_1_"  overflow="visible"/>
	</clipPath>
	<path clip-path="url(#SVGID_2_)" fill="#231F20" d="M121.6,375.9c0,0-16.8,4.2-57.6,6c-20.8,0.9-31.4,0.4-34.8-13
		c-3.5-13.9-15.7-27.8-8.1-34c11.2-9.1,21.1-8.7,27.5,15.2c0,0,4.8-10.9,13.1-15.2"/>
	<path clip-path="url(#SVGID_2_)" fill="#231F20" d="M106.5,377.3c0,0,16.8,4.2,57.6,6c20.8,0.9,31.4,0.4,34.8-13
		c3.5-13.9,15.7-27.8,8.1-34c-11.2-9.1-21.1-8.7-27.5,15.2c0,0-4.8-10.9-13.1-15.2"/>
	<path clip-path="url(#SVGID_2_)" fill="#231F20" d="M74.4,193.1c-6-20.1-27.1-31.5-47.2-25.6c-20.1,6-31.5,27.1-25.6,47.2
		c6,20.1,27.1,31.5,47.2,25.6"/>
	<path clip-path="url(#SVGID_2_)" fill="#231F20" d="M140.5,203.9c0,21,17,38,38,38c21,0,38-17,38-38c0-21-17-38-38-38
		C157.5,165.9,140.5,182.9,140.5,203.9"/>
	<path clip-path="url(#SVGID_2_)" fill="#FFFFFF" d="M53.4,306.9c0,35.2,26.5,63.7,59.1,63.7c32.6,0,59.1-28.5,59.1-63.7
		c0-35.2-26.5-63.7-59.1-63.7C79.9,243.2,53.4,271.7,53.4,306.9"/>
	
		<ellipse clip-path="url(#SVGID_2_)" fill="none" stroke="#231F20" stroke-width="5" stroke-miterlimit="10" cx="112.5" cy="306.9" rx="59.1" ry="63.7"/>
	<path clip-path="url(#SVGID_2_)" fill="#FFFFFF" d="M40.1,245.9c0,41.2,33.4,74.5,74.5,74.5s74.5-33.4,74.5-74.5
		c0-41.2-33.4-74.5-74.5-74.5S40.1,204.7,40.1,245.9"/>
	
		<circle clip-path="url(#SVGID_2_)" fill="none" stroke="#231F20" stroke-width="4" stroke-miterlimit="10" cx="114.6" cy="245.9" r="74.5"/>
	<path clip-path="url(#SVGID_2_)" fill="#231F20" d="M58.5,231.2c-4.6,16.4,2.2,32.6,15.1,36.2s27-6.8,31.6-23.3
		c4.6-16.4-2.2-32.6-15.1-36.2C77.2,204.3,63.1,214.7,58.5,231.2"/>
	<path clip-path="url(#SVGID_2_)" fill="#231F20" d="M130.2,245.7c4.4,16.4,18.5,27,31.4,23.5c12.9-3.5,19.8-19.6,15.3-36.1
		c-4.4-16.4-18.5-27-31.4-23.5C132.6,213.1,125.7,229.2,130.2,245.7"/>
	<path clip-path="url(#SVGID_2_)" fill="#231F20" d="M119.6,271.2c0,0,8.2-3.8,8.2-9.5c0-4.9-18.3-6-19.3-0.7
		C107.4,267.3,119.6,271.2,119.6,271.2"/>
	
		<path clip-path="url(#SVGID_2_)" fill="none" stroke="#231F20" stroke-width="6" stroke-linecap="round" stroke-linejoin="round" stroke-miterlimit="10" d="
		M118.6,269.2c0,0-8.4,18.6-25.6,6.2"/>
	<path clip-path="url(#SVGID_2_)" fill="#FFFFFF" d="M131.5,241.2c0,10.8,8.7,19.5,19.5,19.5c10.8,0,19.5-8.7,19.5-19.5
		c0-10.8-8.7-19.5-19.5-19.5C140.3,221.7,131.5,230.4,131.5,241.2"/>
	<path clip-path="url(#SVGID_2_)" fill="#FFFFFF" d="M65,239.4c0,10.8,8.7,19.5,19.5,19.5c10.8,0,19.5-8.7,19.5-19.5
		c0-10.8-8.7-19.5-19.5-19.5C73.8,219.9,65,228.6,65,239.4"/>
	
		<path clip-path="url(#SVGID_2_)" fill="none" stroke="#231F20" stroke-width="8" stroke-linecap="round" stroke-linejoin="round" stroke-miterlimit="10" d="
		M160.5,246.3c0,0-9.5-13.1-24.3-3"/>
	
		<path clip-path="url(#SVGID_2_)" fill="none" stroke="#231F20" stroke-width="8" stroke-linecap="round" stroke-linejoin="round" stroke-miterlimit="10" d="
		M74.1,246.3c0,0,9.5-13.1,24.3-3"/>
	<path clip-path="url(#SVGID_2_)" fill="#E978AE" d="M132,279.6c0,0-4.4,22.3-19.3,21.1c-13.4-1.2-14.3-22.3-14.3-22.3
		s14.3,4.6,19.8-7.7C118.1,270.7,122.3,280.8,132,279.6"/>
	
		<path clip-path="url(#SVGID_2_)" fill="none" stroke="#231F20" stroke-width="6" stroke-linecap="round" stroke-linejoin="round" stroke-miterlimit="10" d="
		M132,279.6c0,0-4.4,22.3-19.3,21.1c-13.4-1.2-14.3-22.3-14.3-22.3s14.3,4.6,19.8-7.7C118.1,270.7,122.3,280.8,132,279.6z"/>
	<path clip-path="url(#SVGID_2_)" fill="#231F20" d="M74.1,304c0,0,21.4,29.4,57.3,12.4c35.8-17.1,46.5,75.5-71.2,11.5
		c0,0-12.1-12.6-6.5-27.2L74.1,304z"/>
	<path clip-path="url(#SVGID_2_)" fill="#231F20" d="M175.4,292c0,0-29.9,7.9-20.5,30.9c9.4,23,32.9,16.2,35-0.9
		C192,305,181,291.7,175.4,292"/>
	
		<path clip-path="url(#SVGID_2_)" fill="none" stroke="#231F20" stroke-width="6" stroke-linecap="round" stroke-linejoin="round" stroke-miterlimit="10" d="
		M117.2,269.1c0,0,8.1,18.6,24.5,6.2"/>
</g>
<g>
	<defs>
		<rect id="SVGID_3_" width="435.9" height="411.6"/>
	</defs>
	<clipPath id="SVGID_4_">
		<use xlink:href="#SVGID_3_"  overflow="visible"/>
	</clipPath>
	<path clip-path="url(#SVGID_4_)" fill="#7BC9BD" d="M340.4,346.7c0,0,82.6,22.2,82.6,48.8c0,26.7-254.6,14.3-273.6,4.2
		C130.5,389.5,174.5,327.8,340.4,346.7"/>
	<path clip-path="url(#SVGID_4_)" fill="#6EB4A9" d="M320.3,354.3c0,0,54.3,12.4,54.3,27.3c0,14.9-167.3,8-179.8,2.4
		C182.4,378.3,211.3,343.8,320.3,354.3"/>
	<path clip-path="url(#SVGID_4_)" fill="#6EB4A9" d="M193.7,351c1.5-1.4-8.1-21.9-9.1-14S193.7,351,193.7,351"/>
	<path clip-path="url(#SVGID_4_)" fill="#6EB4A9" d="M187.5,354c1.2-1.1-6.3-17.1-7.1-11C179.6,349.2,187.5,354,187.5,354"/>
	<path clip-path="url(#SVGID_4_)" fill="#6EB4A9" d="M197.9,348.1c1.5,0,4.9-17.7,0.8-13.6C194.7,338.7,197.9,348.1,197.9,348.1"/>
	<path clip-path="url(#SVGID_4_)" fill="#6EB4A9" d="M375.9,354.5c1.5,0.4,8.3-16.2,3.4-13.2C374.5,344.4,375.9,354.5,375.9,354.5"
		/>
	<path clip-path="url(#SVGID_4_)" fill="#6EB4A9" d="M371.3,351.5c1.1,0.3,6.5-12.6,2.7-10.3C370.2,343.6,371.3,351.5,371.3,351.5"
		/>
	<path clip-path="url(#SVGID_4_)" fill="#6EB4A9" d="M379.6,356.1c0.7,1.1,12.1-4.9,7.9-5.9C383.2,349.3,379.6,356.1,379.6,356.1"/>
	<path clip-path="url(#SVGID_4_)" fill="#333334" d="M260.9,303.5c0,0-24,40.3,0.5,66.9c0.8,2.2-6.4,8.4-13.4,0.1
		c-7-8.4-26.8-51.1-11.1-72.9L260.9,303.5z"/>
	<path clip-path="url(#SVGID_4_)" fill="#333334" d="M256.9,374.5c0,0-46.2,6.2-45.5,0.3C212.1,369,223.6,354,256.9,374.5"/>
	<path clip-path="url(#SVGID_4_)" fill="#333334" d="M333.6,303.5c0,0-24,40.3,0.5,66.9c0.8,2.2-6.4,8.4-13.4,0.1
		c-7-8.4-26.8-51.1-11.1-72.9L333.6,303.5z"/>
	<path clip-path="url(#SVGID_4_)" fill="#333334" d="M329.7,374.5c0,0-46.2,6.2-45.5,0.3C284.8,369,296.3,354,329.7,374.5"/>
	<path clip-path="url(#SVGID_4_)" fill="#333334" d="M180.8,214.4c0,0,22.6,18.3,50.2,12.7l-2.9-16c0,0-27.5,14-46.7-1.1
		C181.4,209.9,179.3,213,180.8,214.4"/>
	<path clip-path="url(#SVGID_4_)" fill="#414042" d="M225.3,222.2c4.1,61.3,3.2,70,12.7,79.5c46.3,46.2,128.8,47.3,128.8-121
		c0-74.7-53.1-132.6-118.4-135.2C131.7,40.9,220.3,147.7,225.3,222.2"/>
	<path clip-path="url(#SVGID_4_)" fill="#333334" d="M358.7,135.1c0,0-47.6,80.4-133.5,65.1c0,0,39.7,25.8,77.2,5.6
		s12.3,112.9-27.8,119.4c0,0,57.2,18,78-34.8C371.2,243.6,373.3,160.8,358.7,135.1"/>
	<path clip-path="url(#SVGID_4_)" fill="#333334" d="M344,45.5c0,0,37-6.6,38.4,17.1c1.4,23.6,53.5-4.9,53.5-4.9
		s-4.2,31.3-30.6,38.2c-26.4,7-29.9-4.2-29.9-4.2s36.8,34.8,25,52.8c0,0-19.3-29.2-32.9-22.9C353.9,127.9,316.1,58.4,344,45.5"/>
	<path clip-path="url(#SVGID_4_)" fill="#414042" d="M131.2,88.3c0,74.7,24.8,116.4,118.4,116.4C315,204.7,368,162.9,368,88.3
		C368,13.6,312,0,246.6,0S131.2,13.6,131.2,88.3"/>
	<path clip-path="url(#SVGID_4_)" fill="#F9B48C" d="M342.6,79.7c0,0-134.6-36-210,4.2c0,0-13.6,38.4,92.8,38.4
		C351.3,122.3,342.6,79.7,342.6,79.7"/>
	<path clip-path="url(#SVGID_4_)" fill="#F58E54" d="M132.6,83.9c0,0,122.9-36.1,190.2-1.3c15.8,19.8-25.7,33-25.7,33
		s46.3-6.8,46.3-35.8C343.3,79.7,217.3,38.5,132.6,83.9"/>
	<path clip-path="url(#SVGID_4_)" fill="#333334" d="M182.7,210.9c0,0-1.5-11.3-6.8-11c-5.3,0.3,3.6,5.3,1.5,6.2
		c-2.1,0.9-12.2-1,3.5,8.3L182.7,210.9z"/>
	<path clip-path="url(#SVGID_4_)" fill="#333334" d="M298.6,247.5c0,0,28.2,2.7,35.6-22.6l-12.5-10.5c0,0-1.1,28.6-25.5,29.3
		C296.2,243.7,296.5,247.4,298.6,247.5"/>
	<path clip-path="url(#SVGID_4_)" fill="#333334" d="M296.8,243.7c0,0-4.9-2.6-5.1-1.5s2.1,2.6,1.8,2.9s-6.8-0.1-6.1,2
		s4.9,5.9,12.2,0.5L296.8,243.7z"/>
	<path clip-path="url(#SVGID_4_)" fill="#333334" d="M179.7,89.6c0,0-9.1-6.9-16.6-1.7c-0.8-2.2,9.7-12.4,18.1,1.5
		C181.7,89.1,181.4,91.1,179.7,89.6"/>
	<path clip-path="url(#SVGID_4_)" fill="#333334" d="M174.9,101.6c0,0-4.4-8.9-9.9-0.9c-0.3-2.2,6.9-14,10.8,0.9
		C176.1,101.4,175.8,103.3,174.9,101.6"/>
	<path clip-path="url(#SVGID_4_)" fill="#333334" d="M305.7,93.6c0,0-9.1-6.9-16.6-1.7c-0.8-2.2,9.7-12.4,18.1,1.5
		C307.7,93.1,307.4,95.1,305.7,93.6"/>
	<path clip-path="url(#SVGID_4_)" fill="#333334" d="M300.9,105.6c0,0-4.4-8.9-9.9-0.9c-0.3-2.2,6.9-14,10.8,0.9
		C302.1,105.4,301.8,107.3,300.9,105.6"/>
</g>
</svg>
