<?xml version="1.0" encoding="utf-8"?>
<!-- Generator: Adobe Illustrator 18.0.0, SVG Export Plug-In . SVG Version: 6.00 Build 0)  -->
<!DOCTYPE svg PUBLIC "-//W3C//DTD SVG 1.1//EN" "http://www.w3.org/Graphics/SVG/1.1/DTD/svg11.dtd">
<svg version="1.1" id="Warstwa_1" xmlns="http://www.w3.org/2000/svg" xmlns:xlink="http://www.w3.org/1999/xlink" x="0px" y="0px"
	 viewBox="0 0 392.3 400.5" enable-background="new 0 0 392.3 400.5" xml:space="preserve">
<g>
	<defs>
		<rect id="SVGID_1_" width="392.3" height="400.5"/>
	</defs>
	<clipPath id="SVGID_2_">
		<use xlink:href="#SVGID_1_"  overflow="visible"/>
	</clipPath>
	<g clip-path="url(#SVGID_2_)">
		<defs>
			<rect id="SVGID_3_" width="392.3" height="400.5"/>
		</defs>
		<clipPath id="SVGID_4_">
			<use xlink:href="#SVGID_3_"  overflow="visible"/>
		</clipPath>
		<path clip-path="url(#SVGID_4_)" fill="#7BC9BD" d="M310.1,335.8c0,0,82.4,22.9,82.2,49.5c-0.2,26.7-254.7,12.1-273.6,1.8
			C99.9,376.8,144.4,315.4,310.1,335.8"/>
		<path clip-path="url(#SVGID_4_)" fill="#6EB4A9" d="M290,343.2c0,0,54.1,12.8,54,27.7s-167.4,6.6-179.8,0.8
			C151.9,366,181.1,331.7,290,343.2"/>
		<path clip-path="url(#SVGID_4_)" fill="#6EB4A9" d="M163.5,338.8c1.5-1.4-7.9-22-9-14.1C153.4,332.6,163.5,338.8,163.5,338.8"/>
		<path clip-path="url(#SVGID_4_)" fill="#6EB4A9" d="M157.2,341.7c1.2-1.1-6.2-17.1-7-11C149.3,336.8,157.2,341.7,157.2,341.7"/>
		<path clip-path="url(#SVGID_4_)" fill="#6EB4A9" d="M167.7,336c1.5,0,5.1-17.6,1-13.6C164.5,326.5,167.7,336,167.7,336"/>
		<path clip-path="url(#SVGID_4_)" fill="#6EB4A9" d="M345.6,343.9c1.5,0.4,8.4-16.1,3.5-13.1C344.3,333.7,345.6,343.9,345.6,343.9"
			/>
		<path clip-path="url(#SVGID_4_)" fill="#6EB4A9" d="M341.1,340.8c1.1,0.3,6.6-12.6,2.8-10.2C340,332.9,341.1,340.8,341.1,340.8"/>
		<path clip-path="url(#SVGID_4_)" fill="#6EB4A9" d="M349.2,345.5c0.7,1.1,12.2-4.8,8-5.8C353,338.7,349.2,345.5,349.2,345.5"/>
		<path clip-path="url(#SVGID_4_)" fill="#333334" d="M140.7,241.5c0,0,28.1,7.5,51-8.8l-9.2-13.5c0,0-19.4,24-43.1,18
			C139.4,237.3,138.7,240.9,140.7,241.5"/>
		<path clip-path="url(#SVGID_4_)" fill="#333334" d="M230.3,299.9c0,0-44,16.2-41.7,52.3c-0.8,2.2-10.3,2.5-10.5-8.4
			c-0.2-10.9,11.4-56.5,37.3-63.5L230.3,299.9z"/>
		<path clip-path="url(#SVGID_4_)" fill="#333334" d="M182.5,352.6c0,0-39.8-24.3-35.6-28.4C151.2,320,169.6,315.6,182.5,352.6"/>
		<path clip-path="url(#SVGID_4_)" fill="#333334" d="M299.6,283.7c0,0,6.9,46.4,42.7,51.5c2,1.2,0.4,10.6-10.4,8.5
			c-10.7-2-53-22.6-54.7-49.4L299.6,283.7z"/>
		<path clip-path="url(#SVGID_4_)" fill="#333334" d="M341.5,341.2c0,0-31.8,34-35,29.1C303.2,365.3,302.6,346.4,341.5,341.2"/>
		<path clip-path="url(#SVGID_4_)" fill="#414042" d="M176.1,230c20.5,57.9,22,66.5,33.7,73.1c57.1,31.9,136.8,10.7,91.3-151.3
			C281,79.9,214.3,38.5,150.7,53.6C37.1,80.7,151.2,159.6,176.1,230"/>
		<path clip-path="url(#SVGID_4_)" fill="#333334" d="M247,230.6c0,0,28.3,1.5,34.7-24.1l-12.9-10c0,0,0.1,28.7-24.3,30.3
			C244.5,226.9,244.9,230.6,247,230.6"/>
		<path clip-path="url(#SVGID_4_)" fill="#333334" d="M245.1,226.9c0,0-3.2-3.5-4.1-2.8c-0.8,0.7,1.9,2,1.3,2.3
			c-0.6,0.3-4.8-1.9-5-0.7c-0.2,1.1,3.1,1.2,2.6,2c-0.5,0.8-3.2-0.1-2.5,1.3c0.6,1.4,2.6-0.2,2.6-0.2s-1.4,2-0.3,2.1
			c1.1,0.1,1.3-1,1.3-1s3.2,1.4,6.1,0.7C247,230.6,247.9,227.3,245.1,226.9"/>
		<path clip-path="url(#SVGID_4_)" fill="#333334" d="M281.1,110.1c0,0-24,90.3-110.9,98.8c0,0,45.2,14.1,75.9-15.4
			c30.7-29.6,42.4,105.4,5.5,122.5c0,0,59.9,1.9,65.7-54.5C322.4,211.2,302,130.9,281.1,110.1"/>
		<path clip-path="url(#SVGID_4_)" fill="#333334" d="M242.7,27.8c0,0,33.8-16.3,41.5,6.1c7.7,22.4,50.2-19.2,50.2-19.2
			s4.4,31.2-19.1,45.1c-23.6,13.8-29.9,4.1-29.9,4.1s44.9,23.5,38.4,44.1c0,0-26.4-22.9-37.9-13.2
			C274.5,104.5,219.3,47.7,242.7,27.8"/>
		<path clip-path="url(#SVGID_4_)" fill="#414042" d="M49.3,126.5c20.2,71.9,55.4,105.3,145.5,80.1c63-17.7,102.7-72.2,82.5-144.1
			C257.1-9.4,199.5-7.4,136.6,10.3C73.6,28,29.1,54.6,49.3,126.5"/>
		<path clip-path="url(#SVGID_4_)" fill="#333334" d="M108.3,142.6c0,0,18.2,28.1,8,51.5l14.6,20.3c0,0-17.8-2.5-18.2-3.7
			c-0.4-1.1-7.1-13.3-7.1-13.3s1.7-46.1-6.8-53.3L108.3,142.6z"/>
		<path clip-path="url(#SVGID_4_)" fill="#F9B48C" d="M250.6,61.1c0,0-139.4,1.7-201.1,60.8c0,0-2.7,40.6,99.7,11.9
			C270.4,99.7,250.6,61.1,250.6,61.1"/>
		<path clip-path="url(#SVGID_4_)" fill="#F58E54" d="M49.6,121.9c0,0,108.6-68,182.7-52.7c20.5,14.8-15.9,38.8-15.9,38.8
			s42.7-19,34.9-47C251.3,60.9,118.8,55.3,49.6,121.9"/>
		<path clip-path="url(#SVGID_4_)" fill="#333334" d="M205.6,100c0.9,3,3.1-4.2,6.1-5c3.1-0.9,5.7,5,4.9,1.9c-0.9-3-4-4.8-7.1-4
			C206.5,93.7,204.7,96.9,205.6,100"/>
		<path clip-path="url(#SVGID_4_)" fill="#333334" d="M88.9,131.6c0.9,3,4,4.8,7.1,4c3.1-0.9,4.8-4,4-7.1c-0.9-3.1-4-4.8-7.1-4
			C89.8,125.3,88,128.5,88.9,131.6"/>
		<path clip-path="url(#SVGID_4_)" fill="#333334" d="M221.2,71.3c0,0-20.1,1.9-25.8,15.1C195.4,86.4,198.7,61,221.2,71.3"/>
		<path clip-path="url(#SVGID_4_)" fill="#333334" d="M103.5,110.6c0,0-18.9-7.2-29.8,2.1C73.7,112.7,88,91.5,103.5,110.6"/>
		<path clip-path="url(#SVGID_4_)" fill="#C9C556" d="M156,258.4c2.4,2.4,4.4,4.3,7,1.7l0.1-0.1c2.6-2.6-2.1-6.7-4.5-9.1l-52.9-53.2
			c-2.4-2.4-3.4-3.2-6-0.7l-0.1,0c-2.6,2.6-0.9,3.6,1.5,6.1L156,258.4z"/>
		<path clip-path="url(#SVGID_4_)" fill="#C9C67A" d="M98.2,198.9c14-16.1,5.4-46.5-19.3-68c-24.7-21.5-56-25.8-70-9.7
			c-7.1,8.1-8.4,19.9-4.7,32.4c-6.3-15.8-5.7-31.3,3.2-41.5c15.4-17.7,49.9-12.9,77,10.7c27.1,23.6,36.6,57.1,21.2,74.8
			c-6.1,7-15.2,10.5-25.6,10.7C87.4,207.1,93.7,204.1,98.2,198.9"/>
		<g opacity="0.8" clip-path="url(#SVGID_4_)">
			<g>
				<defs>
					<rect id="SVGID_5_" x="2.2" y="111.4" width="102.7" height="97.1"/>
				</defs>
				<clipPath id="SVGID_6_">
					<use xlink:href="#SVGID_5_"  overflow="visible"/>
				</clipPath>
				<path clip-path="url(#SVGID_6_)" fill="#C9F1FF" d="M28.2,189.2c24.7,21.5,56,25.8,70,9.7c14-16.1,5.4-46.5-19.3-68
					c-24.7-21.5-56-25.8-70-9.7C-5.1,137.3,3.6,167.7,28.2,189.2"/>
			</g>
		</g>
		<g opacity="0.7" clip-path="url(#SVGID_4_)">
			<g>
				<defs>
					<rect id="SVGID_7_" x="21.3" y="121.8" width="63.5" height="70.5"/>
				</defs>
				<clipPath id="SVGID_8_">
					<use xlink:href="#SVGID_7_"  overflow="visible"/>
				</clipPath>
				<path clip-path="url(#SVGID_8_)" fill="#FFFFFF" d="M39.3,121.8c0,0,62.2,50.9,40.9,44.7c-21.3-6.2-63.7-33-43.9-11.9
					c19.8,21.1,47.1,50.5,19.8,31.7c-27.3-18.9,9.5,6.8-12.4-18.1c-22-24.9-33.2-38.1-8.6-27C59.7,152.3,78.3,163.1,39.3,121.8"/>
			</g>
		</g>
		<path clip-path="url(#SVGID_4_)" fill="#CA4240" d="M139.3,229.7l-8.3,7.3c0,0,26,27.2,28.5,27.2c0,0,6.1-3.9,5.7-7
			C164.9,254.2,139.3,229.7,139.3,229.7"/>
	</g>
</g>
</svg>
