<?xml version="1.0" encoding="utf-8"?>
<!-- Generator: Adobe Illustrator 18.0.0, SVG Export Plug-In . SVG Version: 6.00 Build 0)  -->
<!DOCTYPE svg PUBLIC "-//W3C//DTD SVG 1.1//EN" "http://www.w3.org/Graphics/SVG/1.1/DTD/svg11.dtd">
<svg version="1.1" id="Warstwa_1" xmlns="http://www.w3.org/2000/svg" xmlns:xlink="http://www.w3.org/1999/xlink" x="0px" y="0px"
	 viewBox="0 0 740.6 276.2" enable-background="new 0 0 740.6 276.2" xml:space="preserve">
<g>
	<path fill="#FFFFFF" d="M208.5,127l1.2-0.2c2.2-1.6,4.4-3.2,6.7-5l0.9-8.1c-16.1,12.2-35.1,25.9-56.4,40c-2.5,1.7,1.5,5.4,7.4,1.7
		c2.9-1.8,13.7-8.5,32-21.7C201.4,130.3,204.6,127.5,208.5,127"/>
	<path fill="#FFFFFF" d="M198.5,92.4c-18.4,20.4-39.9,16.6-40.8,16.4l-1.2,5.9c0.3,0.1,2.7,0.5,6.4,0.5c8.8,0,25.1-2.5,39.6-18.4
		c-14.7,24.9-36.9,22.7-37.9,22.6l-0.7,6c0.2,0,1.2,0.1,2.7,0.1c7.5,0,28.2-2.4,41.9-27.3c0.9-1.6,1.8-3.1,2.8-4.4L198.5,92.4z"/>
	<path fill="#FFFFFF" d="M232.1,74.1c0.1,0,0.2,0,0.3,0l10.4,1.1c0.3-2,0.9-4,1.7-5.9c-6.1-0.2-14,0.5-22,3.7L232.1,74.1z"/>
	<path fill="#FFFFFF" d="M139.2,89.3c1-0.5,0.9-3-0.2-6.3c0-0.1,0-0.1-0.1-0.2l2.9-1.2c1.2,1,2.6,1.6,4.2,1.8l76.6,8.7l-3.7,33.5
		l50.8-6.7l-4.2-8.7l2.3-0.6l5.4,11.2l-64.4,8.5c-4.4,0.6-7.5,4.6-6.9,9c0.5,4,4,6.9,7.9,6.9c0.4,0,0.7,0,1.1-0.1l75.3-10
		c2.5-0.3,4.8-1.9,6-4.1c1.2-2.3,1.3-5,0.2-7.3l-8.9-18.5l-2.6-5.5c-4.1,2.7-8.7,4.1-13.6,4.1c-8.2,0-15.8-4-20.4-10.7
		c-3.1-4.5-4.5-9.8-4.3-14.9l-10.5-1.1c-0.1,0-0.2,0-0.3,0l-62.4-7.1l5.6-2.4l12.6-5.3l-1.9-5.2l-22.8,9.2l-5.9,2.4l-9.1-1
		c-4.4-0.5-8.4,2.7-8.9,7c0,0.4-0.1,0.8,0,1.2l-2.8,1.1c0-0.1-0.1-0.1-0.1-0.2c-1.6-2.6-3.3-4.2-4.3-3.8c-0.9,0.4-0.9,2.8,0,5.7
		C52.3,114.2,15.3,138,9.5,141.6C3.6,145.3,0,153.7,0,153.7c68.5-41.8,125.9-65.6,134.4-69.1C136.2,87.8,138.2,89.7,139.2,89.3"/>
	<path fill="#FFFFFF" d="M201.8,190.6l-49.7,30.9c-5.7,3.6-7.5,11.1-3.9,16.9c2.3,3.7,6.3,5.8,10.4,5.8c2.2,0,4.4-0.6,6.5-1.8
		l53.2-33.1c2.3-1.4,4-3.6,5-6.1l12.1-32.1c-9.2,1.1-18.3,2-27.3,2.8L201.8,190.6z"/>
	<path fill="#FFFFFF" d="M270.2,155.1l1.7-15.7l-55.2,7.3l-0.6,5.2c0,0.3,0,0.7,0,1l-1.8,4.8l-1.9,4.9
		c-105.1,7.2-192.7-6.8-192.7-6.8l2.8,7.1C53,166.8,330,198.6,476.4,77.6l-1.4-1.2c-55.5,45.6-129.7,68.8-202,79.7
		c-0.1,0-0.2,0-0.3,0L270.2,155.1z"/>
	<path fill="#FFFFFF" d="M241.5,170.3c0.8,0.6,1.7,1.1,2.7,1.4l37.3,13.6l-18.2,42.6c-2.7,6.2,0.2,13.4,6.4,16.1
		c1.6,0.7,3.2,1,4.8,1c4.8,0,9.3-2.8,11.3-7.4l23.3-54.5c1.3-3.1,1.3-6.6,0-9.7c-1.3-3.1-3.9-5.5-7.1-6.6l-11.8-4.3
		C273.9,165.6,257.6,168.2,241.5,170.3"/>
	<path fill="#FFFFFF" d="M248.8,91.8c7,10.2,21.1,12.8,31.3,5.8c5.1-3.5,8.3-8.8,9.4-14.5c-2,0.4-4.3,0.6-6.7,0.6
		c-8.9,0-16-2.8-16-6.2c0-2.2,13.2-3,22.7-2.3c-0.5-3.1-1.7-6.1-3.6-8.8c-7-10.2-21.1-12.8-31.3-5.8
		C244.3,67.5,241.7,81.5,248.8,91.8"/>
	<path fill="#FFFFFF" d="M502.9,207.7c-1.4-0.8-2.6-1.8-3.7-3L482,185.2l2.1,58.2c0.2,6.7,5.8,12,12.5,12c0.2,0,0.3,0,0.5,0
		c6.9-0.3,12.3-6.1,12-13l-1.2-33C506.2,209.2,504.5,208.6,502.9,207.7L502.9,207.7z"/>
	<polygon fill="#FFFFFF" points="511.1,174.9 518.1,156.5 497.8,159.9 	"/>
	<path fill="#FFFFFF" d="M555.6,77.8c2.5,1.4,4.3,3.9,5,6.7c0.6,2.7,0.1,5.4-1.4,7.8c-1.5,2.3-3.8,3.9-6.5,4.5l-40.3,8.9
		c-4.7,7.9-8.9,16.9-12.6,27.2l-31.7,5.3c-4.3,0.7-7.9,3.7-9.3,7.8c-1.5,4.1-0.6,8.7,2.3,11.9l39.8,45.3c0.9,1,1.9,1.9,3.1,2.5
		c4.3,2.5,9.9,2,13.9-1.4c5-4.4,5.5-12,1.1-16.9l-25.6-29.1l29.2-4.9c4.2-0.7,7.5-3.5,9.1-7.2c1-1.4,2-3.2,3.1-5.4
		c6.5-16.1,20.6-31.1,29.9-41.9c7.4-7.2,10-19.4,3.7-25.5c-6.4-6.1-19.4-8.2-31,2.1c-1.7,1.6-3.5,3.2-5.2,4.9l16.1-3.5
		C550.8,76.1,553.4,76.5,555.6,77.8"/>
	<path fill="#FFFFFF" d="M552.2,94.6c4.3-0.9,7-5.2,6.1-9.5c-0.9-4.3-5.2-7-9.5-6.1l-77.5,17c-4.3,0.9-7,5.2-6.1,9.5
		c0.5,2.3,2,4.2,3.9,5.2c1.7,0.9,3.7,1.3,5.7,0.9L552.2,94.6z"/>
	<path fill="#FFFFFF" d="M584.6,89.5c10.8,6.1,24.5,2.4,30.7-8.4c6.1-10.8,2.4-24.5-8.4-30.7c-10.8-6.1-24.5-2.4-30.7,8.4
		C570,69.6,573.8,83.3,584.6,89.5"/>
	<polygon fill="#FFFFFF" points="539.2,8.8 537.7,6.3 534.5,7 534.5,10.1 536.1,10.5 	"/>
	<polygon fill="#FFFFFF" points="537.4,43.6 538.2,44.6 541,44.9 541.2,41.3 538.8,41.6 	"/>
	<polygon fill="#FFFFFF" points="502.7,11.9 500.8,10.5 498.4,10.8 498.2,12.2 499.9,14.4 	"/>
	<polygon fill="#FFFFFF" points="494.5,24.2 493.1,21.7 489.8,22.4 489.8,25.4 491.5,25.9 	"/>
	<polygon fill="#FFFFFF" points="514.8,1.7 513.1,0 511.9,0.6 511.1,3.2 514.6,4.2 	"/>
	<polygon fill="#FFFFFF" points="524.7,21.5 523.8,19.2 521.6,18.3 520.8,19.3 521.1,22.1 	"/>
	<polygon fill="#FFFFFF" points="536.1,32.7 535.5,31.1 534,30.5 533.4,31.2 533.6,33.1 	"/>
	<polygon fill="#FFFFFF" points="518.4,32.7 517.8,31.1 516.3,30.5 515.8,31.2 516,33.1 	"/>
	<polygon fill="#FFFFFF" points="472.1,24.3 471.5,22.7 470,22.1 469.4,22.8 469.6,24.7 	"/>
	<polygon fill="#FFFFFF" points="512.9,15.1 513.1,17 515.6,16.6 515,15 513.5,14.4 	"/>
	<polygon fill="#FFFFFF" points="482.8,6.2 482.2,4.6 480.8,4 480.2,4.7 480.4,6.6 	"/>
	<polygon fill="#FFFFFF" points="537.6,22 538.4,19.9 536.4,18.4 534.1,18.8 533.9,20.2 535.6,22.3 	"/>
	<polygon fill="#FFFFFF" points="502.7,39.9 501.8,39.8 500.2,40.9 501.9,42.9 502.9,41.5 	"/>
	<polygon fill="#FFFFFF" points="488.7,42.8 489.2,41.2 488.4,40.7 486.5,41.1 487.1,43.5 	"/>
	<polygon fill="#FFFFFF" points="503.5,31.2 504.5,29.9 504.3,28.3 503.4,28.1 501.9,29.3 	"/>
	<polygon fill="#FFFFFF" points="452.2,19.3 452.5,15.8 449.6,15.5 448.4,18.6 450.8,20.4 	"/>
	<polygon fill="#FFFFFF" points="475.2,49.4 474.7,47.8 473.2,47 472.6,47.7 472.6,49.6 	"/>
	<polygon fill="#FFFFFF" points="556.5,30.7 556.9,26.7 552.6,24.9 550.2,28.3 551.7,30.2 	"/>
	<polygon fill="#FFFFFF" points="566,63.4 567.4,60.9 565,58.5 562.5,60.1 563,61.8 	"/>
	<polygon fill="#FFFFFF" points="554.1,57.9 552.6,56 550.2,55.9 549.7,57.2 550.9,59.6 	"/>
	<polygon fill="#FFFFFF" points="528.3,9.3 528,7.7 527.1,7.6 525.7,8.7 527.3,10.6 	"/>
	<polygon fill="#FFFFFF" points="555.2,53.6 556.5,55.1 558.7,54.7 558.9,52.3 557.4,50.5 556.1,51 	"/>
	<polygon fill="#FFFFFF" points="568.1,54 568.7,51.7 567.5,51 564.9,51.8 564.4,53.7 566,55.3 	"/>
	<polygon fill="#FFFFFF" points="555.5,45.6 554.8,41.1 550.7,40.8 549.9,43.1 551.9,47.4 	"/>
	<path fill="#FFFFFF" d="M705,145.1c-3.4,2.4-5.9,5.6-7.5,9.1l19.8,20.6c0.5,0.5,0.9,1.1,1.3,1.7c1.9,2.7,2.4,6.2,1.3,9.3
		c3.9-0.3,7.8-1.7,11.2-4.1c10.1-7.2,12.5-21.2,5.3-31.4C729.2,140.3,715.2,137.9,705,145.1"/>
	<path fill="#FFFFFF" d="M588.8,213.2l-44.5,41.3c-5.1,4.7-5.3,12.6-0.7,17.7c1.2,1.3,2.5,2.2,4,2.9c4.4,2,9.9,1.3,13.7-2.2
		l40.6-37.8l55.8,2.4c4.3,0.2,8.1-1.8,10.5-5l8.3-7.9l19.4,1.8c3.6,0.3,7-1.8,8.2-5.1l13.5-35.9c1-2.6,0.5-5.4-1-7.5
		c-0.3-0.5-0.6-1-1-1.4l-26.1-27.2c-1.5-2.2-3.9-3.6-6.7-3.6l-35.6,0.5l-32.3-14.1c-4.1-1.8-8.8,0.1-10.5,4.1c-1.8,4,0.1,8.7,4,10.5
		c0,0,0.1,0,0.1,0l33.9,14.8c1,0.5,2.2,0.7,3.3,0.7l18.1-0.2l-27.5,26.4l-24.4-17.6c-2.1-1.5-4.6-2.4-7.3-2.4L551,168
		c-6.9,0-12.5,5.5-12.6,12.4c0,5.1,3,9.5,7.4,11.5c1.5,0.7,3.3,1.1,5.1,1.1l49.7,0.3l24.6,17.8l-27.2-1.2
		C594.5,209.8,591.2,211,588.8,213.2"/>
	<polygon fill="#FFFFFF" points="703,128.5 702.1,125.3 700.1,125.3 697.4,128 699.7,130.3 	"/>
	<polygon fill="#FFFFFF" points="656,99.8 654.2,100.1 654.7,102.5 656.2,101.9 656.7,100.3 	"/>
	<polygon fill="#FFFFFF" points="661.3,102 662.8,101.4 663.3,99.9 662.6,99.3 660.8,99.6 	"/>
	<polygon fill="#FFFFFF" points="667.7,89.4 665.5,87.8 663.5,90.9 665.8,91.7 667.9,90.7 	"/>
	<polygon fill="#FFFFFF" points="669.8,114.6 669.6,113.3 667.3,111.7 665.3,114.8 667.6,115.6 	"/>
	<polygon fill="#FFFFFF" points="678.9,114.9 681.2,115.8 683.4,114.8 683.1,113.4 680.9,111.8 	"/>
	<polygon fill="#FFFFFF" points="677.2,102.6 673.6,103.6 674.8,105.8 677.1,106.4 677.8,105.2 	"/>
	<polygon fill="#FFFFFF" points="656.4,109.9 658.1,109.1 657.9,108 656.1,106.7 655.1,108.2 	"/>
	<polygon fill="#FFFFFF" points="687.6,127.6 688.1,129.7 690.8,128.9 689.9,127.2 688.2,126.7 	"/>
	<polygon fill="#FFFFFF" points="665.5,121.8 665.4,123.9 668.2,124 667.9,122.1 666.3,121.1 	"/>
</g>
</svg>
