<?xml version="1.0" encoding="utf-8"?>
<!-- Generator: Adobe Illustrator 18.0.0, SVG Export Plug-In . SVG Version: 6.00 Build 0)  -->
<!DOCTYPE svg PUBLIC "-//W3C//DTD SVG 1.1//EN" "http://www.w3.org/Graphics/SVG/1.1/DTD/svg11.dtd">
<svg version="1.1" id="Warstwa_1" xmlns="http://www.w3.org/2000/svg" xmlns:xlink="http://www.w3.org/1999/xlink" x="0px" y="0px"
	 viewBox="0 0 126 113" enable-background="new 0 0 126 113" xml:space="preserve">
<g>
	<g>
		<path fill="#FFFFFF" d="M6.9,31L6.9,31c3.1-0.2,4.9-1.6,5.6-4.2c0.6-2.3,0.9-5.6,0.9-9.9v-1.6h0c-0.1-4.9-0.5-8.6-1.2-11.1
			c-0.7-2.6-2.6-3.9-5.7-4v0C5.5,0.1,4.7,0,3.9,0C2.7,0,1.7,0.1,0.7,0.3L0.4,30.6c1.5,0.4,3,0.6,4.4,0.6C5.5,31.2,6.2,31.1,6.9,31z
			 M5.3,4.9l1.1,0C7.3,5,7.9,6,8.2,7.7c0.2,2,0.4,4.6,0.4,7.7c0,3.6,0,6.3-0.2,8c-0.2,1.8-0.8,2.7-1.7,2.9v0c-0.5,0.3-1,0.4-1.6,0.3
			L5.3,4.9z M20.6,30.9l1-0.1c4.3-0.4,6.5-4.7,6.5-12.9v-0.8c0-1,0-2,0-3c0-4.2-0.3-8.9-0.9-14l-4.5,0.3c0.4,6.2,0.7,11.3,0.7,15.2
			c-0.1,3.3-0.2,5.8-0.5,7.7c-0.2,1.8-0.9,2.7-2,2.6v0c-1.1-0.3-1.8-1.1-2-2.4c-0.2-1.3-0.3-4-0.2-8.2c-0.1-3.6,0-8.2,0.6-14
			l-4.7-0.3C14.2,6,14,10.1,14,13.3c0,0.7,0,1.3,0,1.9h0v1.5c0,4.9,0.4,8.6,1.2,11.1C16.2,29.8,18,30.9,20.6,30.9z M33.7,25.9l0.1-6
			c1.6,0,3.3-0.4,4.9-1.4c2.1-1.4,3.3-4,3.4-7.8C42.1,5.2,40.7,2,38,1c-1.1-0.5-2.6-0.8-4.2-0.8h-0.5c-1.2,0-2.6,0.1-4.1,0.3l0,30.2
			l4.7,0.1L33.7,25.9z M33.8,4.1c1.4,0,2.5,0.6,3.2,1.7c0.2,0.7,0.4,2.2,0.4,4.5c-0.1,2.4-0.5,3.9-1.1,4.4c-0.5,0.4-1.3,0.7-2.5,0.8
			L33.8,4.1z M54.3,25.6l-6.5,0.5l0-25.8l-4.4-0.1l-0.2,30.5l11.2-0.4L54.3,25.6z M60.3,31.2l-0.4-31h-4.5l0.4,31L60.3,31.2z
			 M62.9,27c0.7,2.6,2.6,4,5.7,4.1v0c3-0.1,4.9-1.5,5.7-4.1c0.6-1.9,0.9-4.5,1.1-7.7l-4.6-0.2c-0.1,1.8-0.1,3.2-0.3,4.4
			c-0.2,1.8-0.8,2.8-1.8,2.8v0c-0.9-0.1-1.5-1.1-1.8-2.9c-0.2-1.8-0.3-4.4-0.3-7.8s0.1-6,0.3-7.8c0.2-1.8,0.8-2.8,1.8-2.9
			c0.9,0.1,1.5,1,1.8,2.8c0.1,1.1,0.3,2.6,0.3,4.3l4.6-0.5c-0.2-3-0.5-5.5-1.1-7.3c-0.8-2.6-2.7-4-5.7-4.1v0c-3.1,0.2-5,1.6-5.7,4.2
			c-0.7,2.6-1.1,6.4-1.1,11.3h0C61.8,20.7,62.2,24.4,62.9,27z M79.4,31.2l0.5-5l4.1-0.1l0.7,4.3l4.4-0.1L84.4,0.1l-5.7,0.5l-4,30.6
			L79.4,31.2z M81.5,11.5l1.8,10.3l-2.9,0L81.5,11.5z M92.1,30.7l4.6,0.2l0.1-26l4,0l-0.2-4.8L88.1,0L88,4.8l4.1,0.1L92.1,30.7z
			 M112,25.9l-5.9-0.1l0.1-9.9l4.5,0l0.1-4.8l-4.6-0.1l0.1-6l5.7-0.1l-0.2-4.7l-10.1-0.1l-0.5,30.5l10.5,0.1L112,25.9z M115.2,31.3
			h0.3c1.4,0,2.2-0.8,2.3-2.5v-0.3c0-1.6-0.8-2.4-2.4-2.4h-0.1c-1.6,0-2.5,0.8-2.5,2.5v0.1C112.8,30.3,113.6,31.2,115.2,31.3z
			 M-0.1,103.1v3.1l76.6,2.3L-0.1,108v2.1c0,0,102.9,3.4,111.9,2.8c8.9-0.5,14.1-9.3,14.1-9.3L-0.1,103.1z M8.4,65.1l10,33.3
			l8.4,0.1l0-63.4l-8.8,0.2L18,67.9L8.8,36.1l-8.3,0.3L0,97.9l8.8-0.1L8.4,65.1z M30.7,99.4l8.5-0.1l-0.5-63.9l-8.4,0L30.7,99.4z
			 M52.1,36.3l-8.3,0.3l-0.4,61.5l8.8-0.1l-0.4-32.7l10,33.3l8.4,0.1l0-63.4l-8.8,0.2l0.1,32.6L52.1,36.3z M86.5,89.4L86.5,89.4
			c-2,0.3-3.5-1.4-4.3-5.1c-0.3-2.3-0.5-5.2-0.6-8.6l-9-0.4C72.9,91,77,98.8,84.8,99l0.2,0c6.3,0,10.4-2.3,12.3-6.8
			c1.3-4.1,2-11.2,2.1-21.3l0-3.1h0c0-2,0.1-3.7,0.1-5.1c0-6.6-0.3-15.7-0.9-27.4l-8.9,0.6c0.7,13.1,0.9,23.7,0.6,31.9
			c0.1,8.5,0.1,14.1-0.2,16.8C89.8,87.1,88.6,88.8,86.5,89.4z M108.4,89.3l7.7-0.2l1.3,8.9l8.3-0.2l-8.5-62.2l-10.8,0.9l-7.9,63.2
			l8.8,0L108.4,89.3z M111.7,59.1l3.3,21.3l-5.5-0.1L111.7,59.1z"/>
	</g>
</g>
</svg>
