<svg xmlns="http://www.w3.org/2000/svg" viewBox="0 0 126 113"><path fill="#FFF" d="M6.9 31c3.1-.2 4.9-1.6 5.6-4.2.6-2.3.9-5.6.9-9.9v-1.6c-.1-4.9-.5-8.6-1.2-11.1-.7-2.6-2.6-3.9-5.7-4C5.5.1 4.7 0 3.9 0 2.7 0 1.7.1.7.3L.4 30.6c1.5.4 3 .6 4.4.6.7 0 1.4-.1 2.1-.2zM5.3 4.9h1.1C7.3 5 7.9 6 8.2 7.7c.2 2 .4 4.6.4 7.7 0 3.6 0 6.3-.2 8-.2 1.8-.8 2.7-1.7 2.9-.5.3-1 .4-1.6.3l.2-21.7zm15.3 26l1-.1c4.3-.4 6.5-4.7 6.5-12.9v-3.8c0-4.2-.3-8.9-.9-14l-4.5.3c.4 6.2.7 11.3.7 15.2-.1 3.3-.2 5.8-.5 7.7-.2 1.8-.9 2.7-2 2.6-1.1-.3-1.8-1.1-2-2.4-.2-1.3-.3-4-.2-8.2-.1-3.6 0-8.2.6-14L14.6 1c-.4 5-.6 9.1-.6 12.3v3.4c0 4.9.4 8.6 1.2 11.1 1 2 2.8 3.1 5.4 3.1zm13.1-5l.1-6c1.6 0 3.3-.4 4.9-1.4 2.1-1.4 3.3-4 3.4-7.8C42.1 5.2 40.7 2 38 1 36.9.5 35.4.2 33.8.2h-.5c-1.2 0-2.6.1-4.1.3v30.2l4.7.1-.2-4.9zm.1-21.8c1.4 0 2.5.6 3.2 1.7.2.7.4 2.2.4 4.5-.1 2.4-.5 3.9-1.1 4.4-.5.4-1.3.7-2.5.8V4.1zm20.5 21.5l-6.5.5V.3L43.4.2l-.2 30.5 11.2-.4-.1-4.7zm6 5.6l-.4-31h-4.5l.4 31h4.5zm2.6-4.2c.7 2.6 2.6 4 5.7 4.1 3-.1 4.9-1.5 5.7-4.1.6-1.9.9-4.5 1.1-7.7l-4.6-.2c-.1 1.8-.1 3.2-.3 4.4-.2 1.8-.8 2.8-1.8 2.8-.9-.1-1.5-1.1-1.8-2.9-.2-1.8-.3-4.4-.3-7.8s.1-6 .3-7.8c.2-1.8.8-2.8 1.8-2.9.9.1 1.5 1 1.8 2.8.1 1.1.3 2.6.3 4.3l4.6-.5c-.2-3-.5-5.5-1.1-7.3-.8-2.6-2.7-4-5.7-4.1-3.1.2-5 1.6-5.7 4.2-.7 2.6-1.1 6.4-1.1 11.3 0 5.1.4 8.8 1.1 11.4zm16.5 4.2l.5-5 4.1-.1.7 4.3 4.4-.1L84.4.1l-5.7.5-4 30.6h4.7zm2.1-19.7l1.8 10.3h-2.9l1.1-10.3zm10.6 19.2l4.6.2.1-26h4l-.2-4.8L88.1 0 88 4.8l4.1.1v25.8zm19.9-4.8l-5.9-.1.1-9.9h4.5l.1-4.8-4.6-.1.1-6 5.7-.1-.2-4.7-10.1-.1-.5 30.5 10.5.1.3-4.8zm3.2 5.4h.3c1.4 0 2.2-.8 2.3-2.5v-.3c0-1.6-.8-2.4-2.4-2.4h-.1c-1.6 0-2.5.8-2.5 2.5v.1c0 1.6.8 2.5 2.4 2.6zM-.1 103.1v3.1l76.6 2.3-76.6-.5v2.1s102.9 3.4 111.9 2.8c8.9-.5 14.1-9.3 14.1-9.3l-126-.5zm8.5-38l10 33.3 8.4.1V35.1l-8.8.2v32.6L8.8 36.1l-8.3.3L0 97.9l8.8-.1-.4-32.7zm22.3 34.3l8.5-.1-.5-63.9h-8.4l.4 64zm21.4-63.1l-8.3.3-.4 61.5 8.8-.1-.4-32.7 10 33.3 8.4.1V35.3l-8.8.2.1 32.6-9.4-31.8zm34.4 53.1c-2 .3-3.5-1.4-4.3-5.1-.3-2.3-.5-5.2-.6-8.6l-9-.4C72.9 91 77 98.8 84.8 99h.2c6.3 0 10.4-2.3 12.3-6.8 1.3-4.1 2-11.2 2.1-21.3v-3.1c0-2 .1-3.7.1-5.1 0-6.6-.3-15.7-.9-27.4l-8.9.6c.7 13.1.9 23.7.6 31.9.1 8.5.1 14.1-.2 16.8-.3 2.5-1.5 4.2-3.6 4.8zm21.9-.1l7.7-.2 1.3 8.9 8.3-.2-8.5-62.2-10.8.9-7.9 63.2h8.8l1.1-10.4zm3.3-30.2l3.3 21.3-5.5-.1 2.2-21.2z"/></svg>