<svg xmlns="http://www.w3.org/2000/svg" xmlns:xlink="http://www.w3.org/1999/xlink" viewBox="0 0 392.3 400.5"><defs><path id="a" d="M0 0h392.3v400.5H0z"/></defs><clipPath id="b"><use xlink:href="#a" overflow="visible"/></clipPath><g clip-path="url(#b)"><defs><path id="c" d="M0 0h392.3v400.5H0z"/></defs><clipPath id="d"><use xlink:href="#c" overflow="visible"/></clipPath><path clip-path="url(#d)" fill="#7BC9BD" d="M310.1 335.8s82.4 22.9 82.2 49.5c-.2 26.7-254.7 12.1-273.6 1.8-18.8-10.3 25.7-71.7 191.4-51.3"/><path clip-path="url(#d)" fill="#6EB4A9" d="M290 343.2s54.1 12.8 54 27.7-167.4 6.6-179.8.8c-12.3-5.7 16.9-40 125.8-28.5m-126.5-4.4c1.5-1.4-7.9-22-9-14.1-1.1 7.9 9 14.1 9 14.1m-6.3 2.9c1.2-1.1-6.2-17.1-7-11-.9 6.1 7 11 7 11m10.5-5.7c1.5 0 5.1-17.6 1-13.6-4.2 4.1-1 13.6-1 13.6m177.9 7.9c1.5.4 8.4-16.1 3.5-13.1-4.8 2.9-3.5 13.1-3.5 13.1m-4.5-3.1c1.1.3 6.6-12.6 2.8-10.2-3.9 2.3-2.8 10.2-2.8 10.2m8.1 4.7c.7 1.1 12.2-4.8 8-5.8-4.2-1-8 5.8-8 5.8"/><path clip-path="url(#d)" fill="#333334" d="M140.7 241.5s28.1 7.5 51-8.8l-9.2-13.5s-19.4 24-43.1 18c0 .1-.7 3.7 1.3 4.3m89.6 58.4s-44 16.2-41.7 52.3c-.8 2.2-10.3 2.5-10.5-8.4-.2-10.9 11.4-56.5 37.3-63.5l14.9 19.6z"/><path clip-path="url(#d)" fill="#333334" d="M182.5 352.6s-39.8-24.3-35.6-28.4c4.3-4.2 22.7-8.6 35.6 28.4m117.1-68.9s6.9 46.4 42.7 51.5c2 1.2.4 10.6-10.4 8.5-10.7-2-53-22.6-54.7-49.4l22.4-10.6z"/><path clip-path="url(#d)" fill="#333334" d="M341.5 341.2s-31.8 34-35 29.1c-3.3-5-3.9-23.9 35-29.1"/><path clip-path="url(#d)" fill="#414042" d="M176.1 230c20.5 57.9 22 66.5 33.7 73.1 57.1 31.9 136.8 10.7 91.3-151.3C281 79.9 214.3 38.5 150.7 53.6c-113.6 27.1.5 106 25.4 176.4"/><path clip-path="url(#d)" fill="#333334" d="M247 230.6s28.3 1.5 34.7-24.1l-12.9-10s.1 28.7-24.3 30.3c0 .1.4 3.8 2.5 3.8"/><path clip-path="url(#d)" fill="#333334" d="M245.1 226.9s-3.2-3.5-4.1-2.8c-.8.7 1.9 2 1.3 2.3-.6.3-4.8-1.9-5-.7-.2 1.1 3.1 1.2 2.6 2s-3.2-.1-2.5 1.3c.6 1.4 2.6-.2 2.6-.2s-1.4 2-.3 2.1c1.1.1 1.3-1 1.3-1s3.2 1.4 6.1.7c-.1 0 .8-3.3-2-3.7"/><path clip-path="url(#d)" fill="#333334" d="M281.1 110.1s-24 90.3-110.9 98.8c0 0 45.2 14.1 75.9-15.4 30.7-29.6 42.4 105.4 5.5 122.5 0 0 59.9 1.9 65.7-54.5 5.1-50.3-15.3-130.6-36.2-151.4m-38.4-82.3s33.8-16.3 41.5 6.1c7.7 22.4 50.2-19.2 50.2-19.2s4.4 31.2-19.1 45.1c-23.6 13.8-29.9 4.1-29.9 4.1s44.9 23.5 38.4 44.1c0 0-26.4-22.9-37.9-13.2-11.4 9.7-66.6-47.1-43.2-67"/><path clip-path="url(#d)" fill="#414042" d="M49.3 126.5c20.2 71.9 55.4 105.3 145.5 80.1 63-17.7 102.7-72.2 82.5-144.1-20.2-71.9-77.8-69.9-140.7-52.2C73.6 28 29.1 54.6 49.3 126.5"/><path clip-path="url(#d)" fill="#333334" d="M108.3 142.6s18.2 28.1 8 51.5l14.6 20.3s-17.8-2.5-18.2-3.7c-.4-1.1-7.1-13.3-7.1-13.3s1.7-46.1-6.8-53.3l9.5-1.5z"/><path clip-path="url(#d)" fill="#F9B48C" d="M250.6 61.1s-139.4 1.7-201.1 60.8c0 0-2.7 40.6 99.7 11.9 121.2-34.1 101.4-72.7 101.4-72.7"/><path clip-path="url(#d)" fill="#F58E54" d="M49.6 121.9s108.6-68 182.7-52.7C252.8 84 216.4 108 216.4 108s42.7-19 34.9-47c0-.1-132.5-5.7-201.7 60.9"/><path clip-path="url(#d)" fill="#333334" d="M205.6 100c.9 3 3.1-4.2 6.1-5 3.1-.9 5.7 5 4.9 1.9-.9-3-4-4.8-7.1-4-3 .8-4.8 4-3.9 7.1M88.9 131.6c.9 3 4 4.8 7.1 4 3.1-.9 4.8-4 4-7.1-.9-3.1-4-4.8-7.1-4-3.1.8-4.9 4-4 7.1m132.3-60.3s-20.1 1.9-25.8 15.1c0 0 3.3-25.4 25.8-15.1m-117.7 39.3s-18.9-7.2-29.8 2.1c0 0 14.3-21.2 29.8-2.1"/><path clip-path="url(#d)" fill="#C9C556" d="M156 258.4c2.4 2.4 4.4 4.3 7 1.7l.1-.1c2.6-2.6-2.1-6.7-4.5-9.1l-52.9-53.2c-2.4-2.4-3.4-3.2-6-.7h-.1c-2.6 2.6-.9 3.6 1.5 6.1l54.9 55.3z"/><path clip-path="url(#d)" fill="#C9C67A" d="M98.2 198.9c14-16.1 5.4-46.5-19.3-68-24.7-21.5-56-25.8-70-9.7-7.1 8.1-8.4 19.9-4.7 32.4-6.3-15.8-5.7-31.3 3.2-41.5 15.4-17.7 49.9-12.9 77 10.7s36.6 57.1 21.2 74.8c-6.1 7-15.2 10.5-25.6 10.7 7.4-1.2 13.7-4.2 18.2-9.4"/><g opacity=".8" clip-path="url(#d)"><defs><path id="e" d="M2.2 111.4h102.7v97.1H2.2z"/></defs><clipPath id="f"><use xlink:href="#e" overflow="visible"/></clipPath><path clip-path="url(#f)" fill="#C9F1FF" d="M28.2 189.2c24.7 21.5 56 25.8 70 9.7s5.4-46.5-19.3-68c-24.7-21.5-56-25.8-70-9.7s-5.3 46.5 19.3 68"/></g><g opacity=".7" clip-path="url(#d)"><defs><path id="g" d="M21.3 121.8h63.5v70.5H21.3z"/></defs><clipPath id="h"><use xlink:href="#g" overflow="visible"/></clipPath><path clip-path="url(#h)" fill="#FFF" d="M39.3 121.8s62.2 50.9 40.9 44.7c-21.3-6.2-63.7-33-43.9-11.9 19.8 21.1 47.1 50.5 19.8 31.7-27.3-18.9 9.5 6.8-12.4-18.1-22-24.9-33.2-38.1-8.6-27 24.6 11.1 43.2 21.9 4.2-19.4"/></g><path clip-path="url(#d)" fill="#CA4240" d="M139.3 229.7L131 237s26 27.2 28.5 27.2c0 0 6.1-3.9 5.7-7-.3-3-25.9-27.5-25.9-27.5"/></g></svg>