<svg xmlns="http://www.w3.org/2000/svg" xmlns:xlink="http://www.w3.org/1999/xlink" viewBox="0 0 311.8 411.6"><defs><path id="a" d="M0 0h311.8v411.6H0z"/></defs><clipPath id="b"><use xlink:href="#a" overflow="visible"/></clipPath><path clip-path="url(#b)" fill="#7BC9BD" d="M216.2 346.7s82.6 22.2 82.6 48.8c0 26.7-254.6 14.3-273.6 4.2-18.9-10.2 25.1-71.9 191-53"/><path clip-path="url(#b)" fill="#6EB4A9" d="M196.2 354.3s54.3 12.4 54.3 27.3-167.3 8-179.8 2.4c-12.4-5.7 16.5-40.2 125.5-29.7M69.6 351c1.5-1.4-8.1-21.9-9.1-14-1.1 7.8 9.1 14 9.1 14m-6.2 3c1.2-1.1-6.3-17.1-7.1-11-.9 6.2 7.1 11 7.1 11m10.4-5.9c1.5 0 4.9-17.7.8-13.6-4.1 4.2-.8 13.6-.8 13.6m178 6.4c1.5.4 8.3-16.2 3.4-13.2-4.8 3.1-3.4 13.2-3.4 13.2m-4.6-3c1.1.3 6.5-12.6 2.7-10.3-3.8 2.4-2.7 10.3-2.7 10.3m8.2 4.6c.7 1.1 12.1-4.9 7.9-5.9-4.2-.9-7.9 5.9-7.9 5.9"/><path clip-path="url(#b)" fill="#333334" d="M136.7 303.5s-24 40.3.5 66.9c.8 2.2-6.4 8.4-13.4.1-7-8.4-26.8-51.1-11.1-72.9l24 5.9z"/><path clip-path="url(#b)" fill="#333334" d="M132.8 374.5s-46.2 6.2-45.5.3c.6-5.8 12.1-20.8 45.5-.3m76.6-71s-24 40.3.5 66.9c.8 2.2-6.4 8.4-13.4.1-7-8.4-26.8-51.1-11.1-72.9l24 5.9z"/><path clip-path="url(#b)" fill="#333334" d="M205.5 374.5s-46.2 6.2-45.5.3c.6-5.8 12.1-20.8 45.5-.3"/><path clip-path="url(#b)" fill="#414042" d="M101.1 222.2c4.1 61.3 3.2 70 12.7 79.5 46.3 46.2 128.8 47.3 128.8-121 0-74.7-53.1-132.6-118.4-135.2-116.6-4.6-28.1 102.2-23.1 176.7"/><path clip-path="url(#b)" fill="#333334" d="M234.6 135.1s-47.6 80.4-133.5 65.1c0 0 39.7 25.8 77.2 5.6s12.3 112.9-27.8 119.4c0 0 57.2 18 78-34.8 18.5-46.8 20.6-129.6 6.1-155.3"/><path clip-path="url(#b)" fill="#333334" d="M175.8 245.5s28.3.1 33.4-25.8l-13.4-9.3s1.6 28.6-22.7 31.5c-.1 0 .6 3.7 2.7 3.6"/><path clip-path="url(#b)" fill="#333334" d="M173.5 241.4s-3.6-2.4-5.7-1.1c-2.1 1.2-3 1.3-3 1.3s-8-1.2-8.5 1.4c-.4 2.6 7.9 1.2 7.9 1.2s-2.5 4.4 1.9 4.8c6.7.6 5.3-.4 4.6-1.6-.7-1.2 2.7.2 4.1-2.5 1.4-2.6-1.3-3.5-1.3-3.5m46.4-195.9s37-6.6 38.4 17.1c1.4 23.6 53.5-4.9 53.5-4.9s-4.2 31.3-30.6 38.2c-26.4 7-29.9-4.2-29.9-4.2s36.8 34.8 25 52.8c0 0-19.3-29.2-32.9-22.9-13.7 6.3-51.5-63.2-23.5-76.1"/><path clip-path="url(#b)" fill="#414042" d="M7 88.3C7 163 31.8 204.7 125.4 204.7c65.4 0 118.4-41.7 118.4-116.4S187.8 0 122.4 0 7 13.6 7 88.3"/><path clip-path="url(#b)" fill="#F9B48C" d="M218.5 79.7s-134.6-36-210 4.2c0 0-13.6 38.4 92.8 38.4 125.8 0 117.2-42.6 117.2-42.6"/><path clip-path="url(#b)" fill="#F58E54" d="M8.5 83.9s122.9-36.1 190.2-1.3c15.8 19.8-25.7 33-25.7 33s46.3-6.8 46.3-35.8c-.1-.1-126.2-41.3-210.8 4.1"/><path clip-path="url(#b)" fill="#333334" d="M164.9 104c0 3.2 2.6 5.7 5.7 5.7 3.2 0 5.7-2.6 5.7-5.7 0-3.2-2.6-5.7-5.7-5.7s-5.7 2.5-5.7 5.7m-120.5 1.1c0 3.2 2.6 5.7 5.7 5.7s5.7-2.6 5.7-5.7c0-3.2-2.6-5.7-5.7-5.7s-5.7 2.5-5.7 5.7m143-23.6s-19.9-3.6-28.9 7.5c0 .1 10.1-23.4 28.9-7.5M63.5 87.6s-16.2-12-29.3-6.1c0 .1 19.5-16.5 29.3 6.1"/><path clip-path="url(#b)" fill="#87878C" d="M20.8 301c.3 4.8 4.4 8.5 9.2 8.3l137.2 8.6c4.8-.3 8.5-4.4 8.3-9.2l1.2-108.7c-.3-4.8-4.4-8.5-9.2-8.3L12.3 184c-4.8.3-8.5 4.4-8.3 9.2L20.8 301z"/><path clip-path="url(#b)" fill="#A0A0A5" d="M16.8 301c.3 4.8 4.4 8.5 9.2 8.3l137.2 8.6c4.8-.3 8.5-4.4 8.3-9.2l1.2-108.7c-.3-4.8-4.4-8.5-9.2-8.3L8.3 184c-4.8.3-8.5 4.4-8.3 9.2L16.8 301z"/><path clip-path="url(#b)" fill="#414042" d="M6.2 239.8s9-1 9 0 2 2.1-3.2 2.5c0 0 3.6 3.4-1.1 7 0 0-4.7 1.6-3.5-1.9.1-.1-4.2-3.6-1.2-7.6"/><path clip-path="url(#b)" fill="#808085" d="M65.3 251.6c-1 13.2 8.8 24.7 22 25.7s24.7-8.8 25.7-22-8.8-24.7-22-25.7-24.7 8.8-25.7 22"/><path clip-path="url(#b)" fill="#A3A4A9" d="M98.7 247.8s4.6-.4 4.5 2.5c-.1 2.9 6.6-.1 6.6-.1s-.8 3.8-4.1 4.4c-3.3.6-3.6-.8-3.6-.8s4.2 4.6 2.5 6.7c0 0-2.1-3.8-3.8-3.1-1.7.6-5.7-8.3-2.1-9.6"/><path clip-path="url(#b)" fill="#D9D9E0" d="M72.2 251c-.7 9.1 1.9 14.5 13.3 15.4 8 .6 14.9-4 15.6-13.1.7-9.1-6-11.3-14-12-7.9-.6-14.2.6-14.9 9.7"/><path clip-path="url(#b)" fill="#808085" d="M98.2 252s-16.1-5.7-25.7-1.5c0 0-2 4.6 11 5.6 15.3 1.2 14.7-4.1 14.7-4.1"/><path clip-path="url(#b)" fill="#D9D9E0" d="M92.7 253.7c0 .4.3.7.6.8.4 0 .7-.3.8-.6 0-.4-.3-.7-.6-.8-.5-.1-.8.2-.8.6m-15.6-.5c0 .4.3.7.6.8.4 0 .7-.3.8-.6 0-.4-.3-.7-.6-.8-.4-.1-.7.2-.8.6m17.2-1.3s-2.4-.6-3.6.6c0 .1 1.5-2.7 3.6-.6m-15.2-.4s-1.9-1.6-3.5-1c0 0 2.5-1.9 3.5 1"/></svg>