<svg xmlns="http://www.w3.org/2000/svg" xmlns:xlink="http://www.w3.org/1999/xlink" viewBox="0 0 435.9 411.6"><defs><path id="a" d="M0 0h435.9v411.6H0z"/></defs><clipPath id="b"><use xlink:href="#a" overflow="visible"/></clipPath><path clip-path="url(#b)" fill="#231F20" d="M121.6 375.9s-16.8 4.2-57.6 6c-20.8.9-31.4.4-34.8-13-3.5-13.9-15.7-27.8-8.1-34 11.2-9.1 21.1-8.7 27.5 15.2 0 0 4.8-10.9 13.1-15.2"/><path clip-path="url(#b)" fill="#231F20" d="M106.5 377.3s16.8 4.2 57.6 6c20.8.9 31.4.4 34.8-13 3.5-13.9 15.7-27.8 8.1-34-11.2-9.1-21.1-8.7-27.5 15.2 0 0-4.8-10.9-13.1-15.2m-92-143.2c-6-20.1-27.1-31.5-47.2-25.6-20.1 6-31.5 27.1-25.6 47.2 6 20.1 27.1 31.5 47.2 25.6m91.7-36.4c0 21 17 38 38 38s38-17 38-38-17-38-38-38-38 17-38 38"/><path clip-path="url(#b)" fill="#FFF" d="M53.4 306.9c0 35.2 26.5 63.7 59.1 63.7s59.1-28.5 59.1-63.7-26.5-63.7-59.1-63.7-59.1 28.5-59.1 63.7"/><ellipse clip-path="url(#b)" fill="none" stroke="#231F20" stroke-width="5" stroke-miterlimit="10" cx="112.5" cy="306.9" rx="59.1" ry="63.7"/><path clip-path="url(#b)" fill="#FFF" d="M40.1 245.9c0 41.2 33.4 74.5 74.5 74.5s74.5-33.4 74.5-74.5c0-41.2-33.4-74.5-74.5-74.5s-74.5 33.3-74.5 74.5"/><circle clip-path="url(#b)" fill="none" stroke="#231F20" stroke-width="4" stroke-miterlimit="10" cx="114.6" cy="245.9" r="74.5"/><path clip-path="url(#b)" fill="#231F20" d="M58.5 231.2c-4.6 16.4 2.2 32.6 15.1 36.2s27-6.8 31.6-23.3c4.6-16.4-2.2-32.6-15.1-36.2-12.9-3.6-27 6.8-31.6 23.3m71.7 14.5c4.4 16.4 18.5 27 31.4 23.5 12.9-3.5 19.8-19.6 15.3-36.1-4.4-16.4-18.5-27-31.4-23.5-12.9 3.5-19.8 19.6-15.3 36.1m-10.6 25.5s8.2-3.8 8.2-9.5c0-4.9-18.3-6-19.3-.7-1.1 6.3 11.1 10.2 11.1 10.2"/><path clip-path="url(#b)" fill="none" stroke="#231F20" stroke-width="6" stroke-linecap="round" stroke-linejoin="round" stroke-miterlimit="10" d="M118.6 269.2s-8.4 18.6-25.6 6.2"/><path clip-path="url(#b)" fill="#FFF" d="M131.5 241.2c0 10.8 8.7 19.5 19.5 19.5s19.5-8.7 19.5-19.5-8.7-19.5-19.5-19.5c-10.7 0-19.5 8.7-19.5 19.5M65 239.4c0 10.8 8.7 19.5 19.5 19.5s19.5-8.7 19.5-19.5-8.7-19.5-19.5-19.5c-10.7 0-19.5 8.7-19.5 19.5"/><path clip-path="url(#b)" fill="none" stroke="#231F20" stroke-width="8" stroke-linecap="round" stroke-linejoin="round" stroke-miterlimit="10" d="M160.5 246.3s-9.5-13.1-24.3-3m-62.1 3s9.5-13.1 24.3-3"/><path clip-path="url(#b)" fill="#E978AE" d="M132 279.6s-4.4 22.3-19.3 21.1c-13.4-1.2-14.3-22.3-14.3-22.3s14.3 4.6 19.8-7.7c-.1 0 4.1 10.1 13.8 8.9"/><path clip-path="url(#b)" fill="none" stroke="#231F20" stroke-width="6" stroke-linecap="round" stroke-linejoin="round" stroke-miterlimit="10" d="M132 279.6s-4.4 22.3-19.3 21.1c-13.4-1.2-14.3-22.3-14.3-22.3s14.3 4.6 19.8-7.7c-.1 0 4.1 10.1 13.8 8.9z"/><path clip-path="url(#b)" fill="#231F20" d="M74.1 304s21.4 29.4 57.3 12.4c35.8-17.1 46.5 75.5-71.2 11.5 0 0-12.1-12.6-6.5-27.2l20.4 3.3z"/><path clip-path="url(#b)" fill="#231F20" d="M175.4 292s-29.9 7.9-20.5 30.9c9.4 23 32.9 16.2 35-.9 2.1-17-8.9-30.3-14.5-30"/><path clip-path="url(#b)" fill="none" stroke="#231F20" stroke-width="6" stroke-linecap="round" stroke-linejoin="round" stroke-miterlimit="10" d="M117.2 269.1s8.1 18.6 24.5 6.2"/><defs><path id="c" d="M0 0h435.9v411.6H0z"/></defs><clipPath id="d"><use xlink:href="#c" overflow="visible"/></clipPath><path clip-path="url(#d)" fill="#7BC9BD" d="M340.4 346.7s82.6 22.2 82.6 48.8c0 26.7-254.6 14.3-273.6 4.2-18.9-10.2 25.1-71.9 191-53"/><path clip-path="url(#d)" fill="#6EB4A9" d="M320.3 354.3s54.3 12.4 54.3 27.3-167.3 8-179.8 2.4c-12.4-5.7 16.5-40.2 125.5-29.7M193.7 351c1.5-1.4-8.1-21.9-9.1-14s9.1 14 9.1 14m-6.2 3c1.2-1.1-6.3-17.1-7.1-11-.8 6.2 7.1 11 7.1 11m10.4-5.9c1.5 0 4.9-17.7.8-13.6-4 4.2-.8 13.6-.8 13.6m178 6.4c1.5.4 8.3-16.2 3.4-13.2-4.8 3.1-3.4 13.2-3.4 13.2m-4.6-3c1.1.3 6.5-12.6 2.7-10.3-3.8 2.4-2.7 10.3-2.7 10.3m8.3 4.6c.7 1.1 12.1-4.9 7.9-5.9-4.3-.9-7.9 5.9-7.9 5.9"/><path clip-path="url(#d)" fill="#333334" d="M260.9 303.5s-24 40.3.5 66.9c.8 2.2-6.4 8.4-13.4.1-7-8.4-26.8-51.1-11.1-72.9l24 5.9z"/><path clip-path="url(#d)" fill="#333334" d="M256.9 374.5s-46.2 6.2-45.5.3c.7-5.8 12.2-20.8 45.5-.3m76.7-71s-24 40.3.5 66.9c.8 2.2-6.4 8.4-13.4.1-7-8.4-26.8-51.1-11.1-72.9l24 5.9z"/><path clip-path="url(#d)" fill="#333334" d="M329.7 374.5s-46.2 6.2-45.5.3c.6-5.8 12.1-20.8 45.5-.3M180.8 214.4s22.6 18.3 50.2 12.7l-2.9-16s-27.5 14-46.7-1.1c0-.1-2.1 3-.6 4.4"/><path clip-path="url(#d)" fill="#414042" d="M225.3 222.2c4.1 61.3 3.2 70 12.7 79.5 46.3 46.2 128.8 47.3 128.8-121 0-74.7-53.1-132.6-118.4-135.2-116.7-4.6-28.1 102.2-23.1 176.7"/><path clip-path="url(#d)" fill="#333334" d="M358.7 135.1s-47.6 80.4-133.5 65.1c0 0 39.7 25.8 77.2 5.6s12.3 112.9-27.8 119.4c0 0 57.2 18 78-34.8 18.6-46.8 20.7-129.6 6.1-155.3M344 45.5s37-6.6 38.4 17.1c1.4 23.6 53.5-4.9 53.5-4.9s-4.2 31.3-30.6 38.2c-26.4 7-29.9-4.2-29.9-4.2s36.8 34.8 25 52.8c0 0-19.3-29.2-32.9-22.9-13.6 6.3-51.4-63.2-23.5-76.1"/><path clip-path="url(#d)" fill="#414042" d="M131.2 88.3c0 74.7 24.8 116.4 118.4 116.4C315 204.7 368 162.9 368 88.3 368 13.6 312 0 246.6 0S131.2 13.6 131.2 88.3"/><path clip-path="url(#d)" fill="#F9B48C" d="M342.6 79.7s-134.6-36-210 4.2c0 0-13.6 38.4 92.8 38.4 125.9 0 117.2-42.6 117.2-42.6"/><path clip-path="url(#d)" fill="#F58E54" d="M132.6 83.9s122.9-36.1 190.2-1.3c15.8 19.8-25.7 33-25.7 33s46.3-6.8 46.3-35.8c-.1-.1-126.1-41.3-210.8 4.1"/><path clip-path="url(#d)" fill="#333334" d="M182.7 210.9s-1.5-11.3-6.8-11c-5.3.3 3.6 5.3 1.5 6.2-2.1.9-12.2-1 3.5 8.3l1.8-3.5zm115.9 36.6s28.2 2.7 35.6-22.6l-12.5-10.5s-1.1 28.6-25.5 29.3c0 0 .3 3.7 2.4 3.8"/><path clip-path="url(#d)" fill="#333334" d="M296.8 243.7s-4.9-2.6-5.1-1.5 2.1 2.6 1.8 2.9-6.8-.1-6.1 2 4.9 5.9 12.2.5l-2.8-3.9zM179.7 89.6s-9.1-6.9-16.6-1.7c-.8-2.2 9.7-12.4 18.1 1.5.5-.3.2 1.7-1.5.2m-4.8 12s-4.4-8.9-9.9-.9c-.3-2.2 6.9-14 10.8.9.3-.2 0 1.7-.9 0m130.8-8s-9.1-6.9-16.6-1.7c-.8-2.2 9.7-12.4 18.1 1.5.5-.3.2 1.7-1.5.2m-4.8 12s-4.4-8.9-9.9-.9c-.3-2.2 6.9-14 10.8.9.3-.2 0 1.7-.9 0"/></svg>