<svg xmlns="http://www.w3.org/2000/svg" xmlns:xlink="http://www.w3.org/1999/xlink" viewBox="0 0 438.6 399.7"><defs><path id="a" d="M0 0h438.6v399.7H0z"/></defs><clipPath id="b"><use xlink:href="#a" overflow="visible"/></clipPath><path clip-path="url(#b)" fill="#7BC9BD" d="M267.8 334.8s82.6 22.2 82.6 48.8c0 26.7-254.6 14.3-273.6 4.2s25.1-71.9 191-53"/><path clip-path="url(#b)" fill="#6EB4A9" d="M247.8 342.4s54.3 12.4 54.3 27.3-167.3 8-179.8 2.4c-12.4-5.7 16.5-40.2 125.5-29.7m-126.6-3.3c1.5-1.4-8.1-21.9-9.1-14-1.1 7.8 9.1 14 9.1 14m-6.2 3c1.2-1.1-6.3-17.1-7.1-11-.9 6.1 7.1 11 7.1 11m10.4-5.9c1.5 0 4.9-17.7.8-13.6-4.1 4.1-.8 13.6-.8 13.6m178 6.4c1.5.4 8.3-16.2 3.4-13.2-4.8 3.1-3.4 13.2-3.4 13.2m-4.6-3c1.1.3 6.5-12.6 2.7-10.3-3.8 2.4-2.7 10.3-2.7 10.3m8.2 4.6c.7 1.1 12.1-4.9 7.9-5.9-4.2-.9-7.9 5.9-7.9 5.9"/><path clip-path="url(#b)" fill="#333334" d="M100.4 241.6s27.4 6.2 38.9-13.9l-10.6-10.5s-5.8 23.8-30 21c0-.1-.3 3.1 1.7 3.4"/><path clip-path="url(#b)" fill="#333334" d="M99.4 238.2s-2.5-3.5-3.4-3c-1 .4 1.4 2 .8 2.2-.6.1-4.4-2.4-4.8-1.5-.4.9 2.8 1.5 2.1 2.1-.6.6-3.1-.6-2.8.7.3 1.3 2.6.3 2.6.3s-1.8 1.4-.7 1.7c1.1.3 1.5-.6 1.5-.6s2.8 1.7 5.8 1.6c-.1-.1 1.5-2.6-1.1-3.5m88.3 61.4s-43.9 16.6-41.3 52.6c-.8 2.2-10.2 2.6-10.5-8.3-.3-10.9 10.9-56.6 36.8-63.9l15 19.6z"/><path clip-path="url(#b)" fill="#333334" d="M140.3 352.7s-40-23.9-35.8-28.1c4.2-4.2 22.6-8.7 35.8 28.1m116.5-69.9s7.3 46.3 43.2 51.1c2 1.2.5 10.5-10.3 8.6-10.8-1.9-53.2-22.2-55.1-49l22.2-10.7z"/><path clip-path="url(#b)" fill="#333334" d="M299.2 340s-31.5 34.3-34.8 29.4c-3.3-5-4-23.9 34.8-29.4"/><path clip-path="url(#b)" fill="#414042" d="M132.9 230.2c21 57.7 22.5 66.3 34.4 72.8 57.4 31.4 136.9 9.5 90-152.1C236.5 79.2 169.4 38.3 105.9 54c-113.4 28.1 1.4 106 27 176.2"/><path clip-path="url(#b)" fill="#333334" d="M236.8 109.4s-23.3 90.5-110 99.7c0 0 45.3 13.7 75.7-16.1 30.4-29.8 43.3 105 6.6 122.5 0 0 59.9 1.4 65.2-55.1 4.7-50.3-16.4-130.4-37.5-151m-39.1-82s33.7-16.6 41.6 5.7c7.9 22.3 50.1-19.6 50.1-19.6s4.7 31.2-18.7 45.2c-23.4 14-29.9 4.3-29.9 4.3s45.1 23.1 38.8 43.8c0 0-26.6-22.7-38-12.9-11.5 9.9-67.1-46.4-43.9-66.5"/><path clip-path="url(#b)" fill="#414042" d="M5.2 127.8c20.8 71.7 56.3 104.9 146.2 78.8 62.8-18.2 102.1-73.1 81.3-144.8C211.8-9.9 154.2-7.4 91.4 10.9 28.6 29.1-15.6 56.1 5.2 127.8"/><path clip-path="url(#b)" fill="#F9B48C" d="M205.9 60.7S66.6 63.6 5.4 123.2c0 0-2.4 40.7 99.8 11 120.9-35.1 100.7-73.5 100.7-73.5"/><path clip-path="url(#b)" fill="#F58E54" d="M5.4 123.2s108-68.9 182.3-54.3c20.6 14.6-15.5 38.9-15.5 38.9s42.5-19.4 34.4-47.3c0 0-132.6-4.5-201.2 62.7"/><path clip-path="url(#b)" fill="#333334" d="M161.2 99.9c.9 3 4.1 4.8 7.1 3.9 3-.9 4.8-4.1 3.9-7.1-.9-3-4.1-4.8-7.1-3.9-3 .9-4.8 4.1-3.9 7.1M44.8 132.5c.9 3 4.1 4.8 7.1 3.9 3-.9 4.8-4.1 3.9-7.1-.9-3-4.1-4.8-7.1-3.9-3 .9-4.8 4.1-3.9 7.1m131.8-61.4s-20.1 2.1-25.7 15.3c0 0 3.1-25.4 25.7-15.3M59.2 111.4s-18.9-7-29.8 2.3c0 .1 14.1-21.3 29.8-2.3"/><path clip-path="url(#b)" fill="#F1D571" d="M228.1 235.2s-6.4-22.8-2.9-39.8c3.8-18.6 10.5-39 24-33.9 15.8 6 11.6 115.3 67.3 135 57.4 20.2 143.4-2 117.4-104.3-19.5-76.8-148-66.6-170.8-65-30.2 2.1-42.2 38.2-50.9 67.2-1 3.3-2.6 9.3-3.2 12.5-2 9.4-11.8 17.2-11.1 24.1 0 0 6.1 3 13.9 5.5 9.8 3.1 16.3-1.3 16.3-1.3"/><path clip-path="url(#b)" fill="#F1CF54" d="M350.4 145s68.4 13.4 55.8 65.8c-12.8 53.1-65 30-75 6.4-10-23.7-10.9-72 19.2-72.2"/><path clip-path="url(#b)" fill="#F1CD4D" d="M252.6 148.5c44.9-4.9 11.6 170.4 137.2 137.7 48.5-12.6 41.3-56.1 46.9-80.5.8 5 1.4 9.8 1.7 14.4-.8 10.1-2.1 22.1-3.9 34.8-16 48.6-75.3 57.1-118.4 41.7-55.6-19.9-50.8-129.3-66.6-135.3-13.5-5.2-20.3 15.3-24.2 33.8-3.6 16.9 2.7 39.8 2.7 39.8s-5.5 4.3-15.5 1.1c0-.1 4.8-83.6 40.1-87.5"/><path clip-path="url(#b)" fill="#333334" d="M249.2 161.5c2.1.4 10 43.7-12.7 51.3s-28.9 1-28.9 1l1.9-5s28.7-2.4 25.1-27.7c0 .1-3.1-22.6 14.6-19.6"/><path clip-path="url(#b)" fill="#333334" d="M211.3 207.8s-3.4-2.3-5.1-.8-5.1 7.8-2.9 9.8 9.5 0 9.5 0l-1.5-9z"/><path clip-path="url(#b)" fill="#F1CD4D" d="M247.4 131.9s70.7-28.4 158.9 20.4c-21.8-3.5-57.8-37.5-149.2-17.7 0 0 16.4-3 44.9 26.6 0 0-54.7-46.4-80.4 5.3 0 0 2.8-20.2 25.8-34.6"/></svg>