<svg xmlns="http://www.w3.org/2000/svg" xmlns:xlink="http://www.w3.org/1999/xlink" viewBox="0 0 449.1 432"><defs><path id="a" d="M0 0h449.1v432H0z"/></defs><clipPath id="b"><use xlink:href="#a" overflow="visible"/></clipPath><path clip-path="url(#b)" fill="#7BC9BD" d="M319.2 367.1s119.3 22.2 119.3 48.8c0 26.7-367.8 14.3-395.2 4.2-27.3-10.1 36.3-71.8 275.9-53"/><path clip-path="url(#b)" fill="#6EB4A9" d="M290.3 374.8s78.4 12.4 78.4 27.3-241.7 8-259.6 2.4c-18-5.8 23.7-40.2 181.2-29.7m-182.9-3.3c2.1-1.4-11.7-21.9-13.2-14-1.5 7.8 13.2 14 13.2 14m-9 2.9c1.7-1.1-9.2-17.1-10.3-11-1.1 6.2 10.3 11 10.3 11m15.1-5.8c2.2 0 7.1-17.7 1.2-13.6-5.9 4.1-1.2 13.6-1.2 13.6m257.1 6.3c2.1.4 11.9-16.2 5-13.2-7.1 3.1-5 13.2-5 13.2m-6.7-2.9c1.7.3 9.3-12.6 3.9-10.3-5.4 2.4-3.9 10.3-3.9 10.3m11.9 4.6c1 1.1 17.5-4.9 11.4-5.9s-11.4 5.9-11.4 5.9"/><path clip-path="url(#b)" fill="#767478" d="M182.4 243.8l-2.1 9.4-1.8-.5 3.1-9.4z"/><path clip-path="url(#b)" fill="#535254" d="M177.5 243.8c0 .7 1.8 1.3 4.1 1.4 2.3.1 4.2-.4 4.2-1 0-.7-1.8-1.3-4.1-1.4-2.3-.1-4.1.3-4.2 1"/><path clip-path="url(#b)" fill="#7E7C80" d="M177.5 243c0 .7 1.8 1.3 4.1 1.4s4.1-.4 4.2-1c0-.7-1.8-1.3-4.1-1.4-2.4-.1-4.2.3-4.2 1"/><path clip-path="url(#b)" fill="#767478" d="M188.8 244.7l-3 7-1.3-.6 3.7-6.9z"/><path clip-path="url(#b)" fill="#535254" d="M185 244.1c-.1.5 1.2 1.2 3 1.6 1.8.4 3.3.3 3.4-.2.1-.5-1.2-1.2-3-1.6-1.8-.5-3.3-.4-3.4.2"/><path clip-path="url(#b)" fill="#7E7C80" d="M185 243.4c-.1.5 1.2 1.2 3 1.6 1.8.4 3.3.3 3.4-.2.1-.5-1.2-1.2-3-1.6-1.8-.4-3.3-.3-3.4.2"/><path clip-path="url(#b)" fill="#716F73" d="M171.4 243.8l-2.1 9.4-1.8-.5 3.1-9.4z"/><path clip-path="url(#b)" fill="#535254" d="M166.5 243.8c0 .7 1.8 1.3 4.1 1.4 2.3.1 4.2-.4 4.2-1 0-.7-1.8-1.3-4.1-1.4-2.3-.1-4.1.3-4.2 1"/><path clip-path="url(#b)" fill="#7E7C80" d="M166.5 243c0 .7 1.8 1.3 4.1 1.4s4.1-.4 4.2-1c0-.7-1.8-1.3-4.1-1.4-2.4-.1-4.2.3-4.2 1"/><path clip-path="url(#b)" fill="#767478" d="M177.8 242.7l-3 7-1.3-.6 3.7-6.9z"/><path clip-path="url(#b)" fill="#535254" d="M174 242.1c-.1.5 1.2 1.2 3 1.6 1.8.4 3.3.3 3.4-.2.1-.5-1.2-1.2-3-1.6-1.8-.5-3.3-.4-3.4.2"/><path clip-path="url(#b)" fill="#7E7C80" d="M174 241.4c-.1.5 1.2 1.2 3 1.6 1.8.4 3.3.3 3.4-.2.1-.5-1.2-1.2-3-1.6-1.8-.4-3.3-.3-3.4.2"/><path clip-path="url(#b)" fill="#767478" d="M182.4 246.8l-2.1 9.4-1.8-.5 3.1-9.4z"/><path clip-path="url(#b)" fill="#535254" d="M177.5 246.8c0 .7 1.8 1.3 4.1 1.4 2.3.1 4.2-.4 4.2-1 0-.7-1.8-1.3-4.1-1.4-2.3-.1-4.1.3-4.2 1"/><path clip-path="url(#b)" fill="#7E7C80" d="M177.5 246c0 .7 1.8 1.3 4.1 1.4s4.1-.4 4.2-1c0-.7-1.8-1.3-4.1-1.4-2.4-.1-4.2.3-4.2 1"/><path clip-path="url(#b)" fill="#6F6D70" d="M188.8 247.7l-3 7-1.3-.6 3.7-6.9z"/><path clip-path="url(#b)" fill="#535254" d="M185 247.1c-.1.5 1.2 1.2 3 1.6 1.8.4 3.3.3 3.4-.2.1-.5-1.2-1.2-3-1.6-1.8-.5-3.3-.4-3.4.2"/><path clip-path="url(#b)" fill="#7E7C80" d="M185 246.4c-.1.5 1.2 1.2 3 1.6 1.8.4 3.3.3 3.4-.2.1-.5-1.2-1.2-3-1.6-1.8-.4-3.3-.3-3.4.2"/><path clip-path="url(#b)" fill="#716F73" d="M169.4 244.8l-2.1 9.4-1.8-.5 3.1-9.4z"/><path clip-path="url(#b)" fill="#535254" d="M164.5 244.8c0 .7 1.8 1.3 4.1 1.4 2.3.1 4.2-.4 4.2-1 0-.7-1.8-1.3-4.1-1.4-2.3-.1-4.1.3-4.2 1"/><path clip-path="url(#b)" fill="#7E7C80" d="M164.5 244c0 .7 1.8 1.3 4.1 1.4s4.1-.4 4.2-1c0-.7-1.8-1.3-4.1-1.4-2.4-.1-4.2.3-4.2 1"/><path clip-path="url(#b)" fill="#767478" d="M175.8 245.7l-3 7-1.3-.6 3.7-6.9z"/><path clip-path="url(#b)" fill="#535254" d="M172 245.1c-.1.5 1.2 1.2 3 1.6 1.8.4 3.3.3 3.4-.2.1-.5-1.2-1.2-3-1.6-1.8-.5-3.3-.4-3.4.2"/><path clip-path="url(#b)" fill="#7E7C80" d="M172 244.4c-.1.5 1.2 1.2 3 1.6 1.8.4 3.3.3 3.4-.2.1-.5-1.2-1.2-3-1.6-1.8-.4-3.3-.3-3.4.2"/><path clip-path="url(#b)" fill="#716F73" d="M165.4 245.8l-2.1 9.4-1.8-.5 3.1-9.4z"/><path clip-path="url(#b)" fill="#535254" d="M160.5 245.8c0 .7 1.8 1.3 4.1 1.4 2.3.1 4.2-.4 4.2-1 0-.7-1.8-1.3-4.1-1.4-2.3-.1-4.1.3-4.2 1"/><path clip-path="url(#b)" fill="#7E7C80" d="M160.5 245c0 .7 1.8 1.3 4.1 1.4s4.1-.4 4.2-1c0-.7-1.8-1.3-4.1-1.4-2.4-.1-4.2.3-4.2 1"/><path clip-path="url(#b)" fill="#716F73" d="M171.8 246.7l-3 7-1.3-.6 3.7-6.9z"/><path clip-path="url(#b)" fill="#535254" d="M168 246.1c-.1.5 1.2 1.2 3 1.6 1.8.4 3.3.3 3.4-.2.1-.5-1.2-1.2-3-1.6-1.8-.5-3.3-.4-3.4.2"/><path clip-path="url(#b)" fill="#7E7C80" d="M168 245.4c-.1.5 1.2 1.2 3 1.6 1.8.4 3.3.3 3.4-.2.1-.5-1.2-1.2-3-1.6-1.8-.4-3.3-.3-3.4.2"/><path clip-path="url(#b)" fill="#767478" d="M176.4 249.8l-2.1 9.4-1.8-.5 3.1-9.4z"/><path clip-path="url(#b)" fill="#535254" d="M171.5 249.8c0 .7 1.8 1.3 4.1 1.4 2.3.1 4.2-.4 4.2-1 0-.7-1.8-1.3-4.1-1.4-2.3-.1-4.1.3-4.2 1"/><path clip-path="url(#b)" fill="#7E7C80" d="M171.5 249c0 .7 1.8 1.3 4.1 1.4s4.1-.4 4.2-1c0-.7-1.8-1.3-4.1-1.4-2.4-.1-4.2.3-4.2 1"/><path clip-path="url(#b)" fill="#767478" d="M182.8 250.7l-3 7-1.3-.6 3.7-6.9z"/><path clip-path="url(#b)" fill="#535254" d="M179 250.1c-.1.5 1.2 1.2 3 1.6 1.8.4 3.3.3 3.4-.2.1-.5-1.2-1.2-3-1.6-1.8-.5-3.3-.4-3.4.2"/><path clip-path="url(#b)" fill="#7E7C80" d="M179 249.4c-.1.5 1.2 1.2 3 1.6 1.8.4 3.3.3 3.4-.2.1-.5-1.2-1.2-3-1.6-1.8-.4-3.3-.3-3.4.2"/><path clip-path="url(#b)" fill="#6F6D70" d="M203 247.8l-2 8.8-1.7-.5 2.9-8.7z"/><path clip-path="url(#b)" fill="#535254" d="M198.5 247.8c0 .6 1.7 1.2 3.8 1.3 2.1.1 3.9-.3 3.9-1 0-.6-1.7-1.2-3.8-1.3-2.2 0-3.9.4-3.9 1"/><path clip-path="url(#b)" fill="#7E7C80" d="M198.4 247.1c0 .6 1.7 1.2 3.8 1.3 2.1.1 3.9-.3 3.9-1 0-.6-1.7-1.2-3.8-1.3-2.2-.1-3.9.4-3.9 1"/><path clip-path="url(#b)" fill="#6F6D70" d="M209 248.7l-2.8 6.5-1.2.4 3.4-7.4z"/><path clip-path="url(#b)" fill="#535254" d="M205.4 248.1c-.1.5 1.2 1.2 2.8 1.5 1.7.4 3.1.3 3.2-.2.1-.5-1.1-1.2-2.8-1.5-1.7-.4-3.1-.3-3.2.2"/><path clip-path="url(#b)" fill="#7E7C80" d="M205.4 247.5c-.1.5 1.1 1.2 2.8 1.5 1.6.4 3.1.3 3.2-.2.1-.5-1.1-1.2-2.8-1.5-1.6-.4-3.1-.3-3.2.2"/><path clip-path="url(#b)" fill="#6F6D70" d="M192.8 246l-2.1 8.7-1.6-.5 2.9-8.7z"/><path clip-path="url(#b)" fill="#535254" d="M188.2 246c0 .6 1.7 1.2 3.8 1.3 2.1.1 3.9-.3 3.9-1 0-.6-1.7-1.2-3.8-1.3-2.1-.1-3.9.3-3.9 1"/><path clip-path="url(#b)" fill="#7E7C80" d="M188.1 245.2c0 .6 1.7 1.2 3.8 1.3 2.1.1 3.9-.3 3.9-1 0-.6-1.7-1.2-3.8-1.3-2.1 0-3.9.4-3.9 1"/><path clip-path="url(#b)" fill="#6F6D70" d="M198.7 246.8l-3.8 8.6-.2-2.6 3.4-6.4z"/><path clip-path="url(#b)" fill="#535254" d="M195.1 246.2c-.1.5 1.2 1.2 2.8 1.5 1.7.4 3.1.3 3.2-.2.1-.5-1.1-1.2-2.8-1.5-1.6-.4-3.1-.3-3.2.2"/><path clip-path="url(#b)" fill="#7E7C80" d="M195.2 245.6c-.1.5 1.1 1.2 2.8 1.5 1.6.4 3.1.3 3.2-.2.1-.5-1.1-1.2-2.8-1.5-1.7-.4-3.1-.3-3.2.2"/><path clip-path="url(#b)" fill="#6F6D70" d="M203 250.6l-2 8.8-1.7-.5 2.9-8.7z"/><path clip-path="url(#b)" fill="#535254" d="M198.5 250.6c0 .6 1.7 1.2 3.8 1.3 2.1.1 3.9-.3 3.9-1 0-.6-1.7-1.2-3.8-1.3-2.2 0-3.9.4-3.9 1"/><path clip-path="url(#b)" fill="#7E7C80" d="M198.4 249.9c0 .6 1.7 1.2 3.8 1.3 2.1.1 3.9-.3 3.9-1 0-.6-1.7-1.2-3.8-1.3-2.2-.1-3.9.4-3.9 1"/><path clip-path="url(#b)" fill="#6F6D70" d="M209 251.5l-2.8 6.5-1.2-.6 3.4-6.4z"/><path clip-path="url(#b)" fill="#535254" d="M205.4 250.9c-.1.5 1.2 1.2 2.8 1.5 1.7.4 3.1.3 3.2-.2.1-.5-1.1-1.2-2.8-1.5-1.7-.4-3.1-.3-3.2.2"/><path clip-path="url(#b)" fill="#7E7C80" d="M205.4 250.3c-.1.5 1.1 1.2 2.8 1.5 1.6.4 3.1.3 3.2-.2.1-.5-1.1-1.1-2.8-1.5-1.6-.4-3.1-.3-3.2.2"/><path clip-path="url(#b)" fill="#6F6D70" d="M190.9 248.8l-2 8.7-1.7-.5 2.9-8.7z"/><path clip-path="url(#b)" fill="#535254" d="M186.3 248.8c0 .6 1.7 1.2 3.8 1.3 2.1.1 3.9-.3 3.9-1 0-.6-1.7-1.2-3.8-1.3-2.1-.1-3.9.3-3.9 1"/><path clip-path="url(#b)" fill="#7E7C80" d="M186.2 248c0 .6 1.7 1.2 3.8 1.3 2.1.1 3.9-.3 3.9-1 0-.6-1.7-1.2-3.8-1.3-2.1 0-3.8.4-3.9 1"/><path clip-path="url(#b)" fill="#6F6D70" d="M196.8 249.6l-2.7 6.6-1.3-.6 3.5-6.4z"/><path clip-path="url(#b)" fill="#535254" d="M193.3 249c-.1.5 1.2 1.2 2.8 1.5 1.7.4 3.1.3 3.2-.2.1-.5-1.2-1.2-2.8-1.5-1.7-.4-3.1-.3-3.2.2"/><path clip-path="url(#b)" fill="#7E7C80" d="M193.3 248.4c-.1.5 1.1 1.2 2.8 1.5 1.6.4 3.1.3 3.2-.2.1-.5-1.1-1.2-2.8-1.5-1.7-.4-3.1-.3-3.2.2"/><path clip-path="url(#b)" fill="#6F6D70" d="M187.2 249.7l-2.1 8.8-1.6-.5 2.8-8.7z"/><path clip-path="url(#b)" fill="#535254" d="M182.6 249.7c0 .6 1.7 1.2 3.8 1.3 2.1.1 3.9-.3 3.9-1 0-.6-1.7-1.2-3.8-1.3-2.1-.1-3.9.4-3.9 1"/><path clip-path="url(#b)" fill="#7E7C80" d="M182.5 248.9c0 .6 1.7 1.2 3.8 1.3 2.1.1 3.9-.3 3.9-1 0-.6-1.7-1.2-3.8-1.3-2.1 0-3.9.4-3.9 1"/><path clip-path="url(#b)" fill="#6F6D70" d="M193.1 250.5l-2.8 6.6-1.2-.6 3.4-6.4z"/><path clip-path="url(#b)" fill="#535254" d="M189.5 249.9c-.1.5 1.2 1.2 2.8 1.5 1.7.4 3.1.3 3.2-.2.1-.5-1.1-1.2-2.8-1.5-1.6-.4-3.1-.3-3.2.2"/><path clip-path="url(#b)" fill="#7E7C80" d="M189.6 249.3c-.1.5 1.1 1.2 2.8 1.5 1.6.4 3.1.3 3.2-.2.1-.5-1.1-1.2-2.8-1.5-1.7-.4-3.1-.3-3.2.2"/><path clip-path="url(#b)" fill="#2B2A2B" d="M154.8 251.8l11.8-12.6-3.8-5.4-.1 1.9 1.9 2.7-11.1 12.8z"/><path clip-path="url(#b)" fill="#2B2A2B" d="M165.7 233.9l-3.1 3.4-1.2-1.8 2.4-2.8z"/><path clip-path="url(#b)" fill="#3A393B" d="M154.3 252.1l11.1-13.2-4.1-5.2.1 1.9 2 2.5-10.5 13.4z"/><path clip-path="url(#b)" fill="#3A393B" d="M164.3 233.6l-3 3.6-1.3-1.7 2.3-3z"/><path clip-path="url(#b)" fill="#535254" d="M154.6 251.6l9.3-14.5-4.7-4.7.3 1.9 2.3 2.3-8.6 14.6z"/><path clip-path="url(#b)" fill="#535254" d="M162.1 232l-2.4 3.9-1.6-1.5 1.9-3.2zm-9.8 19.9l8.3-15.2-5.1-4.3.5 1.9 2.5 2.1-7.6 15.2z"/><path clip-path="url(#b)" fill="#535254" d="M158.4 231.7l-2.1 4.1-1.7-1.4 1.6-3.3z"/><path clip-path="url(#b)" fill="#C9C299" d="M147.4 215.6s-43.9-33.1-69.9-12.9c0 0 10.1-32.1 27-36.1 0 0 51.3 10 51.5 59.9l-8.6-10.9z"/><path clip-path="url(#b)" fill="#4F4D4F" d="M104.5 226.6c0 10.7 8.7 19.4 19.4 19.4s19.4-8.7 19.4-19.4-8.7-19.4-19.4-19.4c-10.7-.1-19.4 8.6-19.4 19.4"/><path clip-path="url(#b)" fill="#333334" d="M262.6 308s-24 40.3.5 66.9c.8 2.2-6.4 8.4-13.4.1-7-8.4-26.8-51.1-11.1-72.9l24 5.9z"/><path clip-path="url(#b)" fill="#333334" d="M257.7 379.1s-46.2 6.2-45.5.3c.6-5.8 12.1-20.8 45.5-.3m86.6-71.1s-24 40.3.5 66.9c.8 2.2-6.4 8.4-13.4.1-7-8.4-26.8-51.1-11.1-72.9l24 5.9z"/><path clip-path="url(#b)" fill="#333334" d="M340.4 379.1s-46.2 6.2-45.5.3c.6-5.8 12.1-20.8 45.5-.3M199 237.1s19.7 20.4 41.8 6l-2.7-16.1s-19.4 21.1-38.5 5.7c0-.1-2.1 3-.6 4.4"/><path clip-path="url(#b)" fill="#333334" d="M200.1 233.2s-.8-4.2-3.2-4.9c-2.4-.7-3.1-1.2-3.1-1.2s-5.7-2.2-8.1 1.9c-1.3 2.3 5.8-.5 5.8-.5s-4.9 1.3-2.1 4.7c4.2 5.2 4 3.6 4.4 2.2.4-1.3 1.8 2.1 4.7 1.2 2.9-.9 1.6-3.4 1.6-3.4"/><path clip-path="url(#b)" fill="#414042" d="M226 226.8c4.1 61.3 3.2 70 12.7 79.5 46.3 46.2 128.8 47.3 128.8-121 0-74.7-53.1-132.6-118.4-135.2C132.5 45.4 221 152.2 226 226.8"/><path clip-path="url(#b)" fill="#333334" d="M283.4 208.6s-9.3 6.3-16.2 5.3c0 0 6.7 32.7 6.4 35.7l-15 18.3-11.4-19 12.4-43.9 23.8 3.6z"/><path clip-path="url(#b)" fill="#333334" d="M359.4 139.6s-47.5 65.4-133.5 50.1c0 0 28.7 31.5 77.2 18.6 41.7-11 12.5 114.9-27.8 121.4 0 0 57.2 18 78-34.8 18.6-46.7 20.7-129.5 6.1-155.3"/><path clip-path="url(#b)" fill="#8C2727" d="M263.6 211.2c9.6 1.6 19.8-6.9 19.8-6.9-2.8-5.6-38.3-2.6-38.3-2.6 1.7 5.9 10.6 8.1 10.6 8.1s-1.4 21.2-9.8 37l11.8 19s13.3-14.2 13.3-19.2c0 .2-3.8-24-7.4-35.4"/><path clip-path="url(#b)" fill="#333334" d="M356.4 36.8s36-10.5 40 12.8c3.9 23.3 52.7-10.6 52.7-10.6s-.8 31.6-26.3 41.3c-25.5 9.8-30.2-.9-30.2-.9s40.4 30.6 30.6 49.8c0 0-22.3-26.9-35.2-19.2-12.9 7.7-58-57.4-31.6-73.2"/><path clip-path="url(#b)" fill="#414042" d="M149.4 102.4c8.1 74.2 37.3 113 130.3 102.9 65-7.1 113.2-54.3 105.1-128.5-8-74.3-65.2-81.8-130.2-74.7-65 7.1-113.2 26-105.2 100.3"/><path clip-path="url(#b)" fill="#F9B48C" d="M358.7 71S221 49.8 150.4 97.9c0 0-9.4 39.6 96.4 28.1 125.1-13.7 111.9-55 111.9-55"/><path clip-path="url(#b)" fill="#333334" d="M312.1 99.3c1.2 2 3.7 2.7 5.7 1.5 2-1.2 2.7-3.7 1.5-5.7-1.2-2-3.7-2.7-5.7-1.5-2 1.2-2.7 3.7-1.5 5.7m-127.8 13.2c1.2 2 3.7 2.7 5.7 1.5 2-1.2 2.7-3.7 1.5-5.7-1.2-2-3.7-2.7-5.7-1.5-2 1.2-2.6 3.8-1.5 5.7"/><path clip-path="url(#b)" fill="#F58E54" d="M150.4 97.8s118.3-49.2 188.9-21.9c17.8 18-22 35.6-22 35.6s45.3-11.7 42.1-40.6c0 0-129.8-27.4-209 26.9"/><path clip-path="url(#b)" fill="#333334" d="M288 248.7s25.1 13.1 41.5-7.5l-6.6-15.4s-12.8 27.1-35.7 18.5c0-.1-1.1 3.5.8 4.4"/><path clip-path="url(#b)" fill="#333334" d="M287.8 244s-2.1-3.7-4.5-3.6c-2.4.1-3.3-.2-3.3-.2s-6.4-2.6-8.2 3.4c-.7 2.6 6.5-1.3 6.5-1.3s-4.2 2.7-.6 5.1c5.6 3.6 4.9 2.1 4.8.7-.1-1.4 2.3 1.4 4.8-.3 2.5-1.8.5-3.8.5-3.8"/><path clip-path="url(#b)" fill="#765020" d="M129.5 395.8h220.4l16.5-126H113.1z"/><path clip-path="url(#b)" fill="#573B18" d="M109.1 269.8h265.5v6.6H109.1zm15 122.7h232.5v6.6H124.1z"/><path clip-path="url(#b)" fill="#949296" d="M140.7 249.6c3.6 0 3.6 0 75 6.3l10 13.8H113.5v-20l27.2-.1z"/><path clip-path="url(#b)" fill="#838185" d="M113.3 259.5s11.9 8.4 23.4 4.5c10.7-3.9 14.3-6.4 14.3-6.4h65.6l-.8-1.8-102.8-6.9.3 10.6z"/><path clip-path="url(#b)" fill="#535254" d="M100.9 232.7c0 15.2 12.3 27.6 27.6 27.6 15.2 0 27.6-12.3 27.6-27.6 0-15.2-12.3-27.6-27.6-27.6s-27.6 12.4-27.6 27.6"/><path clip-path="url(#b)" fill="#949296" d="M109.5 231.6c0 10.7 8.7 19.4 19.4 19.4s19.4-8.7 19.4-19.4-8.7-19.4-19.4-19.4c-10.7-.1-19.4 8.6-19.4 19.4"/><path clip-path="url(#b)" fill="#535254" d="M101.2 191.8c1.3-1.1 7.8-6.7 7.8-9.2 0-1.5 4.9-5.7 8.1-7.9l-.6-.8c-1.4 1-8.5 6.3-8.5 8.7 0 1.5-4.6 6-7.5 8.4l.7.8z"/><path transform="rotate(128.046 123.18 183.46)" clip-path="url(#b)" fill="#535254" d="M118.3 183h9.7v1h-9.7z"/><path transform="rotate(118.713 130.814 189.297)" clip-path="url(#b)" fill="#535254" d="M125.9 188.8h9.9v1h-9.9z"/><path transform="rotate(124.139 139.178 194.345)" clip-path="url(#b)" fill="#535254" d="M135.6 193.8h7.1v1h-7.1z"/><path clip-path="url(#b)" fill="#C9C299" d="M134.5 125.7s-44.5 14.7-48 25.6c0 0-31.5-20.3-34.9-20.4-3.4-.2 38.8-28.2 43.1-41.5l39.8 36.3z"/><path clip-path="url(#b)" fill="#535254" d="M85.2 140.3l.7-.7c-.5-.5-13.2-12.1-19.3-12.8l-.1 1c5.7.6 18.5 12.4 18.7 12.5m5.5-8.1l.9-.4c-1.4-3.1-15.3-11-16.9-11.9l-.5.9c4.3 2.3 15.5 9 16.5 11.4m31.1-9.6l.7-.7c-4.6-5-28.3-23.3-29.3-24.1l-.6.8c.3.3 24.6 19.1 29.2 24m-10.6 1.8l.5-.8c-5.6-3.6-23.5-17.2-23.6-17.3l-.6.8c.2.1 18.1 13.7 23.7 17.3m-11.1 1.9l.8-.6c-1.9-2.4-17.1-12.2-17.8-12.7l-.5.8c5.4 3.6 16.1 10.7 17.5 12.5"/><path clip-path="url(#b)" fill="#C9C299" d="M4.2 130.5s42.1 27.9 53.7 23.6c0 0 3.8 40.2 5.9 43.2 2.1 3-49.7-14.1-63.9-8.8l4.3-58z"/><path clip-path="url(#b)" fill="#535254" d="M49.5 162.6l-1.1-.1c-.1.8-1.5 19.3 2 24.9l.9-.6c-3.2-5.3-1.8-24-1.8-24.2m-10.6.7l-1-.5c-1.7 3.2.9 20.3 1.2 22.2l1.1-.2c-.8-5.1-2.6-19.1-1.3-21.5m-28.8-20l-1.1-.2c-1.2 7.3-.9 39.5-.9 40.8h1.1c.1-.3-.2-33.4.9-40.6m8.6 7.8l-1.1.1c.7 7.1 1.1 31.3 1.1 31.6h1.1c-.1-.3-.5-24.5-1.1-31.7m9 8.1l-1-.3c-.8 3.2 1 22.7 1.1 23.5l1.1-.1c-.7-6.9-1.8-20.7-1.2-23.1"/><path clip-path="url(#b)" fill="#C9C299" d="M34.5 266s38.7-26.5 39-37.9c0 0 35.9 10.7 39.2 9.9 3.3-.8-29.4 37.9-29.8 51.8L34.5 266z"/><path clip-path="url(#b)" fill="#535254" d="M77.8 238.2l-.4.9c.7.3 16 8 22.1 6.9l-.2-1c-5.7 1-21.3-6.7-21.5-6.8m-3 9.4l-.8.6c2.2 2.6 17.7 6.3 19.5 6.7l.2-1c-4.7-1-17.3-4.3-18.9-6.3m-27.3 17.8l-.5.9c5.9 3.5 33.6 14.5 34.8 15l.4-.9c-.3-.2-28.9-11.5-34.7-15m9.7-4.6l-.3 1c6.4 1.9 27.3 10 27.5 10.1l.4-.9c-.2-.2-21.2-8.3-27.6-10.2m10.1-5l-.6.8c2.4 1.8 19.9 7 20.6 7.2l.3-1c-6.2-1.8-18.4-5.7-20.3-7"/><path clip-path="url(#b)" fill="#333334" d="M199.5 99.2s-11-10.4-21.3.7c0 0 10-21.9 21.3-.7m127-14s-11-10.4-21.3.7c0 0 10-21.9 21.3-.7"/></svg>