<svg xmlns="http://www.w3.org/2000/svg" viewBox="0 0 740.6 276.2"><g fill="#FFF"><path d="M208.5 127l1.2-.2c2.2-1.6 4.4-3.2 6.7-5l.9-8.1c-16.1 12.2-35.1 25.9-56.4 40-2.5 1.7 1.5 5.4 7.4 1.7 2.9-1.8 13.7-8.5 32-21.7 1.1-3.4 4.3-6.2 8.2-6.7m-10-34.6c-18.4 20.4-39.9 16.6-40.8 16.4l-1.2 5.9c.3.1 2.7.5 6.4.5 8.8 0 25.1-2.5 39.6-18.4-14.7 24.9-36.9 22.7-37.9 22.6l-.7 6c.2 0 1.2.1 2.7.1 7.5 0 28.2-2.4 41.9-27.3.9-1.6 1.8-3.1 2.8-4.4l-12.8-1.4zm33.6-18.3h.3l10.4 1.1c.3-2 .9-4 1.7-5.9-6.1-.2-14 .5-22 3.7l9.6 1.1z"/><path d="M139.2 89.3c1-.5.9-3-.2-6.3 0-.1 0-.1-.1-.2l2.9-1.2c1.2 1 2.6 1.6 4.2 1.8l76.6 8.7-3.7 33.5 50.8-6.7-4.2-8.7 2.3-.6 5.4 11.2-64.4 8.5c-4.4.6-7.5 4.6-6.9 9 .5 4 4 6.9 7.9 6.9.4 0 .7 0 1.1-.1l75.3-10c2.5-.3 4.8-1.9 6-4.1 1.2-2.3 1.3-5 .2-7.3l-8.9-18.5-2.6-5.5c-4.1 2.7-8.7 4.1-13.6 4.1-8.2 0-15.8-4-20.4-10.7-3.1-4.5-4.5-9.8-4.3-14.9l-10.5-1.1h-.3L169.4 70l5.6-2.4 12.6-5.3-1.9-5.2-22.8 9.2-5.9 2.4-9.1-1c-4.4-.5-8.4 2.7-8.9 7 0 .4-.1.8 0 1.2l-2.8 1.1c0-.1-.1-.1-.1-.2-1.6-2.6-3.3-4.2-4.3-3.8-.9.4-.9 2.8 0 5.7C52.3 114.2 15.3 138 9.5 141.6 3.6 145.3 0 153.7 0 153.7c68.5-41.8 125.9-65.6 134.4-69.1 1.8 3.2 3.8 5.1 4.8 4.7m62.6 101.3l-49.7 30.9c-5.7 3.6-7.5 11.1-3.9 16.9 2.3 3.7 6.3 5.8 10.4 5.8 2.2 0 4.4-.6 6.5-1.8l53.2-33.1c2.3-1.4 4-3.6 5-6.1l12.1-32.1c-9.2 1.1-18.3 2-27.3 2.8l-6.3 16.7z"/><path d="M270.2 155.1l1.7-15.7-55.2 7.3-.6 5.2v1l-1.8 4.8-1.9 4.9c-105.1 7.2-192.7-6.8-192.7-6.8l2.8 7.1C53 166.8 330 198.6 476.4 77.6l-1.4-1.2c-55.5 45.6-129.7 68.8-202 79.7h-.3l-2.5-1z"/><path d="M241.5 170.3c.8.6 1.7 1.1 2.7 1.4l37.3 13.6-18.2 42.6c-2.7 6.2.2 13.4 6.4 16.1 1.6.7 3.2 1 4.8 1 4.8 0 9.3-2.8 11.3-7.4l23.3-54.5c1.3-3.1 1.3-6.6 0-9.7-1.3-3.1-3.9-5.5-7.1-6.6l-11.8-4.3c-16.3 3.1-32.6 5.7-48.7 7.8m7.3-78.5c7 10.2 21.1 12.8 31.3 5.8 5.1-3.5 8.3-8.8 9.4-14.5-2 .4-4.3.6-6.7.6-8.9 0-16-2.8-16-6.2 0-2.2 13.2-3 22.7-2.3-.5-3.1-1.7-6.1-3.6-8.8-7-10.2-21.1-12.8-31.3-5.8-10.3 6.9-12.9 20.9-5.8 31.2m254.1 115.9c-1.4-.8-2.6-1.8-3.7-3L482 185.2l2.1 58.2c.2 6.7 5.8 12 12.5 12h.5c6.9-.3 12.3-6.1 12-13l-1.2-33c-1.7-.2-3.4-.8-5-1.7zm8.2-32.8l7-18.4-20.3 3.4z"/><path d="M555.6 77.8c2.5 1.4 4.3 3.9 5 6.7.6 2.7.1 5.4-1.4 7.8-1.5 2.3-3.8 3.9-6.5 4.5l-40.3 8.9c-4.7 7.9-8.9 16.9-12.6 27.2l-31.7 5.3c-4.3.7-7.9 3.7-9.3 7.8-1.5 4.1-.6 8.7 2.3 11.9l39.8 45.3c.9 1 1.9 1.9 3.1 2.5 4.3 2.5 9.9 2 13.9-1.4 5-4.4 5.5-12 1.1-16.9l-25.6-29.1 29.2-4.9c4.2-.7 7.5-3.5 9.1-7.2 1-1.4 2-3.2 3.1-5.4 6.5-16.1 20.6-31.1 29.9-41.9 7.4-7.2 10-19.4 3.7-25.5-6.4-6.1-19.4-8.2-31 2.1-1.7 1.6-3.5 3.2-5.2 4.9l16.1-3.5c2.5-.8 5.1-.4 7.3.9"/><path d="M552.2 94.6c4.3-.9 7-5.2 6.1-9.5-.9-4.3-5.2-7-9.5-6.1l-77.5 17c-4.3.9-7 5.2-6.1 9.5.5 2.3 2 4.2 3.9 5.2 1.7.9 3.7 1.3 5.7.9l77.4-17zm32.4-5.1c10.8 6.1 24.5 2.4 30.7-8.4 6.1-10.8 2.4-24.5-8.4-30.7-10.8-6.1-24.5-2.4-30.7 8.4-6.2 10.8-2.4 24.5 8.4 30.7M539.2 8.8l-1.5-2.5-3.2.7v3.1l1.6.4zm-1.8 34.8l.8 1 2.8.3.2-3.6-2.4.3zm-34.7-31.7l-1.9-1.4-2.4.3-.2 1.4 1.7 2.2zm-8.2 12.3l-1.4-2.5-3.3.7v3l1.7.5zm20.3-22.5L513.1 0l-1.2.6-.8 2.6 3.5 1zm9.9 19.8l-.9-2.3-2.2-.9-.8 1 .3 2.8zm11.4 11.2l-.6-1.6-1.5-.6-.6.7.2 1.9zm-17.7 0l-.6-1.6-1.5-.6-.5.7.2 1.9zm-46.3-8.4l-.6-1.6-1.5-.6-.6.7.2 1.9zm40.8-9.2l.2 1.9 2.5-.4-.6-1.6-1.5-.6zm-30.1-8.9l-.6-1.6-1.4-.6-.6.7.2 1.9zM537.6 22l.8-2.1-2-1.5-2.3.4-.2 1.4 1.7 2.1zm-34.9 17.9l-.9-.1-1.6 1.1 1.7 2 1-1.4zm-14 2.9l.5-1.6-.8-.5-1.9.4.6 2.4zm14.8-11.6l1-1.3-.2-1.6-.9-.2-1.5 1.2zm-51.3-11.9l.3-3.5-2.9-.3-1.2 3.1 2.4 1.8zm23 30.1l-.5-1.6-1.5-.8-.6.7v1.9zm81.3-18.7l.4-4-4.3-1.8-2.4 3.4 1.5 1.9zm9.5 32.7l1.4-2.5-2.4-2.4-2.5 1.6.5 1.7zm-11.9-5.5l-1.5-1.9-2.4-.1-.5 1.3 1.2 2.4zM528.3 9.3l-.3-1.6-.9-.1-1.4 1.1 1.6 1.9zm26.9 44.3l1.3 1.5 2.2-.4.2-2.4-1.5-1.8-1.3.5zm12.9.4l.6-2.3-1.2-.7-2.6.8-.5 1.9 1.6 1.6zm-12.6-8.4l-.7-4.5-4.1-.3-.8 2.3 2 4.3zM705 145.1c-3.4 2.4-5.9 5.6-7.5 9.1l19.8 20.6c.5.5.9 1.1 1.3 1.7 1.9 2.7 2.4 6.2 1.3 9.3 3.9-.3 7.8-1.7 11.2-4.1 10.1-7.2 12.5-21.2 5.3-31.4-7.2-10-21.2-12.4-31.4-5.2"/><path d="M588.8 213.2l-44.5 41.3c-5.1 4.7-5.3 12.6-.7 17.7 1.2 1.3 2.5 2.2 4 2.9 4.4 2 9.9 1.3 13.7-2.2l40.6-37.8 55.8 2.4c4.3.2 8.1-1.8 10.5-5l8.3-7.9 19.4 1.8c3.6.3 7-1.8 8.2-5.1l13.5-35.9c1-2.6.5-5.4-1-7.5-.3-.5-.6-1-1-1.4l-26.1-27.2c-1.5-2.2-3.9-3.6-6.7-3.6l-35.6.5-32.3-14.1c-4.1-1.8-8.8.1-10.5 4.1-1.8 4 .1 8.7 4 10.5h.1l33.9 14.8c1 .5 2.2.7 3.3.7l18.1-.2-27.5 26.4-24.4-17.6c-2.1-1.5-4.6-2.4-7.3-2.4L551 168c-6.9 0-12.5 5.5-12.6 12.4 0 5.1 3 9.5 7.4 11.5 1.5.7 3.3 1.1 5.1 1.1l49.7.3 24.6 17.8-27.2-1.2c-3.5-.1-6.8 1.1-9.2 3.3M703 128.5l-.9-3.2h-2l-2.7 2.7 2.3 2.3zm-47-28.7l-1.8.3.5 2.4 1.5-.6.5-1.6zm5.3 2.2l1.5-.6.5-1.5-.7-.6-1.8.3zm6.4-12.6l-2.2-1.6-2 3.1 2.3.8 2.1-1zm2.1 25.2l-.2-1.3-2.3-1.6-2 3.1 2.3.8zm9.1.3l2.3.9 2.2-1-.3-1.4-2.2-1.6zm-1.7-12.3l-3.6 1 1.2 2.2 2.3.6.7-1.2zm-20.8 7.3l1.7-.8-.2-1.1-1.8-1.3-1 1.5zm31.2 17.7l.5 2.1 2.7-.8-.9-1.7-1.7-.5zm-22.1-5.8l-.1 2.1 2.8.1-.3-1.9-1.6-1z"/></g></svg>